<?xml version="1.0" encoding="utf-8"?>
<!-- Generator: Adobe Illustrator 24.2.0, SVG Export Plug-In . SVG Version: 6.00 Build 0)  -->
<svg version="1.1" id="Layer_1" xmlns="http://www.w3.org/2000/svg" xmlns:xlink="http://www.w3.org/1999/xlink" x="0px" y="0px"
	 viewBox="0 0 676 676" enable-background="new 0 0 676 676" xml:space="preserve">
<g>
	<path fill="#FFFBA2" d="M317.19,0h43.26l-1.75,1c-9.56-0.26-19.13-0.99-28.7-0.53c-8.71,0.45-17.43,0.91-26.14,1.44
		C308.31,1.36,312.75,0.68,317.19,0z"/>
	<g>
		<path fill="#FFFBA2" d="M326.35,17.47c56.25-2.15,112.98,11.06,162.5,37.81c66.95,35.78,120.43,95.99,147.8,166.82
			c16.8,43.38,24.08,90.47,20.89,136.89c-4.64,74.37-36.73,146.53-88.43,200.13c-51.7,54.56-123.23,89.9-198.06,97.39
			c-46.37,4.95-93.82-0.54-137.87-15.85c-66.1-22.8-124.1-67.97-162.67-126.26c-29.19-43.8-47.21-94.94-51.92-147.36
			c-3.27-36.15-0.53-72.88,8.5-108.05c19.37-77.15,68.92-146,135.48-189.43C211.01,37.63,268.36,19.36,326.35,17.47z M311.59,37.61
			c-2.79,6.15-0.68,15.11,6.09,17.61c5.39,1.96,11.25-0.08,15.64-3.39c-0.21-3.25-0.44-6.5-0.67-9.76c-3.45,0.23-6.9,0.47-10.35,0.7
			c0.09,1.34,0.17,2.67,0.26,4.01c1.89-0.12,3.79-0.24,5.69-0.35c1.21,4.28-4.13,5.83-7.35,5.32c-5.38-1.14-6.58-8.26-4.81-12.66
			c2.03-4.65,9.24-4.85,11.54-0.3c1.52-0.42,3.05-0.84,4.58-1.27C329.1,28.69,315.06,29.56,311.59,37.61z M341.48,31.39
			c-0.26,7.95-0.58,15.89-0.84,23.84c1.6,0.06,3.2,0.12,4.81,0.18c0.26-7.95,0.57-15.9,0.84-23.85
			C344.68,31.5,343.08,31.45,341.48,31.39z M361.7,32.22c-3.76,7.65-7.56,15.29-11.33,22.93c1.69,0.15,3.38,0.31,5.08,0.46
			c0.81-1.75,1.63-3.5,2.45-5.24c3.17,0.27,6.34,0.55,9.52,0.85c0.51,1.85,1.04,3.69,1.57,5.54c1.74,0.17,3.48,0.33,5.23,0.5
			c-2.46-8.22-4.96-16.42-7.44-24.63C365.08,32.49,363.39,32.35,361.7,32.22z M279.06,37.07c-10.12,4.78-6.52,23.39,4.9,23.49
			c5.57,0.43,10.48-3.9,10.87-9.45c-1.6-0.22-3.19-0.43-4.78-0.63c-0.48,1.39-0.75,2.88-1.54,4.13c-2.09,2.7-6.79,2.35-8.49-0.59
			c-1.85-3.27-2.66-7.53-1.26-11.1c2.06-3.9,7.89-3.6,9.96,0.16c1.45-0.64,2.89-1.28,4.34-1.93
			C290.52,36.01,283.96,34.51,279.06,37.07z M387.45,36.6c-5.99,2.54-8.15,10.07-6.83,16.01c2.07,8.1,14.21,10.91,19.61,4.55
			c3.1-3.85,4.22-9.38,2.68-14.08C400.75,37.1,393.17,34.48,387.45,36.6z M251.3,43.43c-8.89,2.56-9.09,14.84-3.46,20.68
			c5.59,6.15,17.51,2.91,19.38-5.14c0.9-4.49-0.41-9.42-3.34-12.93C260.87,42.44,255.52,41.72,251.3,43.43z M421.27,46.98
			c2.22,0.76,4.45,1.52,6.67,2.29c-2.11,6.26-4.29,12.51-6.44,18.76c1.52,0.52,3.04,1.04,4.56,1.56c2.15-6.24,4.29-12.48,6.45-18.71
			c2.23,0.74,4.46,1.49,6.69,2.24c0.43-1.26,0.86-2.53,1.3-3.79c-5.97-2.06-11.95-4.11-17.91-6.17
			C422.14,44.43,421.71,45.71,421.27,46.98z M228.47,51.57c1.13,2.92,2.25,5.83,3.37,8.75c-2.94,1.14-5.88,2.27-8.83,3.39
			c-1.1-2.92-2.22-5.84-3.35-8.74c-1.51,0.56-3.01,1.13-4.51,1.7c2.87,7.42,5.7,14.86,8.57,22.28c1.49-0.58,2.99-1.16,4.48-1.73
			c-1.24-3.24-2.48-6.48-3.74-9.71c2.93-1.15,5.88-2.28,8.83-3.4c1.24,3.24,2.49,6.48,3.74,9.73c1.49-0.58,2.99-1.15,4.49-1.72
			c-2.84-7.43-5.7-14.85-8.55-22.28C231.47,50.42,229.97,51,228.47,51.57z M447.45,51.61c-2.99,7.38-5.97,14.76-8.95,22.14
			c1.49,0.59,2.98,1.19,4.48,1.79c1.29-3.22,2.59-6.44,3.9-9.66c2.95,1.15,5.88,2.34,8.78,3.6c-1.36,3.19-2.64,6.4-3.93,9.61
			c1.49,0.59,2.97,1.19,4.47,1.79c2.98-7.37,5.95-14.75,8.93-22.12c-1.49-0.6-2.98-1.19-4.47-1.79c-1.17,2.9-2.34,5.79-3.5,8.69
			c-2.92-1.17-5.84-2.35-8.76-3.54c1.16-2.9,2.34-5.8,3.5-8.7C450.41,52.82,448.93,52.21,447.45,51.61z M479.93,63.76
			c0.81,0.45,2.43,1.34,3.24,1.78c0.68-0.31,2.03-0.93,2.71-1.24c0.13,0.76,0.38,2.29,0.51,3.06c0.79,0.43,2.38,1.3,3.17,1.73
			c-0.2-1.95-0.4-3.91-0.58-5.86c-1.17-0.63-2.31-1.29-3.52-1.8C483.47,61.71,481.75,62.98,479.93,63.76z M193.32,67.71
			c3.73,7.02,7.46,14.04,11.2,21.05c1.41-0.76,2.83-1.52,4.24-2.28c-3.75-7.02-7.46-14.06-11.23-21.06
			C196.12,66.18,194.72,66.94,193.32,67.71z M327.34,66.52c-40.23,1.56-80.15,12.06-115.71,31.01
			c-64.34,33.61-113.99,94.08-134.29,163.79c-7.92,26.76-11.63,54.77-10.89,82.67c1.01,55.39,19.87,110.24,52.93,154.68
			c21.64,29.24,49.15,54.17,80.48,72.67c36.1,21.49,77.27,34.38,119.2,37.2c44.11,3.05,89-4.8,129.32-23
			c64.44-28.64,116.6-83.45,142.17-149.15c16.01-40.58,21.83-85.1,16.97-128.44c-4.29-39.81-17.72-78.57-38.84-112.58
			c-18.37-29.7-42.54-55.79-70.7-76.45C449.18,82.83,388,64,327.34,66.52z M474.25,67.29c-4.69,1.9-7.55,6.83-8.36,11.64
			c-1.2,8.39,9.17,15.26,16.56,11.5c4.08-2.3,6.8-6.76,7.44-11.35C490.98,71.09,481.51,64.34,474.25,67.29z M257.15,69.39
			c0.43,1.48,0.86,2.97,1.31,4.45c1.43-0.43,2.87-0.85,4.31-1.26c-0.4-1.46-0.8-2.93-1.19-4.39
			C260.1,68.59,258.62,68.99,257.15,69.39z M174.47,78.75c1.75,8.35,3.45,16.72,5.21,25.07c1.43-0.93,2.86-1.85,4.28-2.77
			c-0.43-1.86-0.87-3.73-1.31-5.58c2.65-1.77,5.33-3.51,8.02-5.24c1.56,1.14,3.11,2.27,4.68,3.41c1.46-0.95,2.93-1.9,4.41-2.85
			c-7-4.94-14-9.87-21.01-14.81C177.32,76.9,175.9,77.82,174.47,78.75z M488.13,98.21c1.23,0.83,2.47,1.66,3.72,2.5
			c2.88-4.31,5.79-8.59,8.68-12.89c-0.21,6.09-0.46,12.17-0.73,18.26c1.34,0.91,2.68,1.81,4.02,2.72
			c4.44-6.6,8.91-13.18,13.33-19.78c-1.24-0.84-2.48-1.68-3.7-2.52c-2.97,4.4-5.93,8.81-8.9,13.2c0.22-6.21,0.56-12.42,0.82-18.63
			c-1.3-0.89-2.6-1.77-3.88-2.65C497.02,85,492.59,91.61,488.13,98.21z M156.39,91.62c-4.1,1.94-7.33,5.29-10.98,7.93
			c2.14,2.72,4.27,5.44,6.39,8.17c-0.48,0.39-1.43,1.16-1.91,1.55c0.61,0.78,1.21,1.57,1.82,2.36c0.5-0.37,1.49-1.1,1.99-1.47
			c2.13,2.73,4.26,5.45,6.39,8.17c3.32-2.78,7.12-5.03,9.99-8.3c2.96-3.6,1.82-8.81-0.77-12.28
			C166.57,93.65,161.59,89.72,156.39,91.62z M189.32,100.42c0.83,1.28,1.67,2.56,2.5,3.84c1.27-0.84,2.55-1.68,3.83-2.53
			c-0.84-1.26-1.67-2.53-2.51-3.79C191.87,98.77,190.59,99.59,189.32,100.42z M514.5,116.41c2.52,5.26,8.34,8.02,13.95,8.39
			c2.01-2.52,4.05-5.02,6.08-7.52c-2.68-2.2-5.38-4.38-8.09-6.54c-0.85,1.04-1.67,2.07-2.51,3.11c1.42,1.16,2.85,2.31,4.28,3.46
			c-0.68,0.85-1.35,1.7-2.01,2.56c-3.63-0.54-7.92-2.68-8.04-6.86c0.01-5.66,6.73-12.36,12.3-8.46c2.64,1.35,2.65,4.41,2.92,6.97
			c1.22,0.83,2.56,1.47,3.87,2.17c3.05-6.6-2.89-13.38-9.21-14.64C519.12,97.46,510.69,108.16,514.5,116.41z M119.59,129.85
			c1.82,6.29,8.68,11.63,15.37,9.71c5.69-1.71,9.16-7.27,10.39-12.82c-2.25-2.37-4.52-4.73-6.84-7.04c-2.45,2.41-4.94,4.8-7.42,7.2
			c0.93,0.96,1.86,1.93,2.79,2.9c1.3-1.27,2.59-2.53,3.89-3.79c0.79,0.73,1.58,1.46,2.37,2.2c-1.01,3.34-3.16,7.13-7.1,7.24
			c-4.2-0.14-7.8-3.67-9.1-7.5c-1.32-4.83,4.03-9.64,8.73-7.53c0.87-1.36,1.73-2.72,2.54-4.11
			C127.07,111.99,117.06,121.44,119.59,129.85z M554.27,120.89c-3.88,7.49-7.72,15-11.63,22.48c1.16,1.26,2.32,2.52,3.49,3.78
			c7.77-3.33,15.54-6.68,23.3-10.03c-1.17-1.24-2.33-2.49-3.49-3.73c-5.63,2.59-11.25,5.18-16.87,7.76
			c2.9-5.5,5.85-10.96,8.77-16.44C556.65,123.44,555.46,122.16,554.27,120.89z M105.2,138.34c3.81,3.67,8.34,6.53,12.38,9.95
			c-6.19-0.72-12.37-1.42-18.55-2.12c-0.96,1.23-1.92,2.46-2.88,3.68c6.26,4.92,12.53,9.8,18.8,14.7c0.92-1.17,1.84-2.35,2.76-3.52
			c-4.08-3.2-8.17-6.38-12.24-9.58c6.01,0.67,12.02,1.27,18.02,2.04c1.05-1.27,2.1-2.54,3.14-3.81c-6.24-4.94-12.56-9.79-18.8-14.74
			C106.93,136.06,106.02,137.16,105.2,138.34z M577.76,144.79c0.79,0.98,1.58,1.96,2.39,2.93c0.72-0.04,2.14-0.12,2.85-0.16
			c-0.24,1.02-0.47,2.04-0.7,3.06c0.74,0.93,1.49,1.87,2.25,2.8c0.56-1.85,1.14-3.71,1.73-5.56c-0.9-1.13-1.79-2.26-2.69-3.38
			C581.64,144.58,579.7,144.69,577.76,144.79z M553.49,155.51c1.05,1.34,2.1,2.68,3.15,4.02c1.82-0.6,3.65-1.19,5.48-1.79
			c1.95,2.5,3.91,5,5.87,7.51c-1.01,1.67-2.01,3.34-3.01,5.01c1.1,1.34,2.18,2.7,3.33,4.01c4.25-7.39,8.58-14.74,12.83-22.13
			c-1.04-1.34-2.08-2.67-3.11-4C569.85,150.59,561.67,153.04,553.49,155.51z M86.84,160.48c1.26-0.23,2.47-0.63,3.63-1.18
			c-0.65,1.01-1.55,1.82-2.56,2.47c-3.78,2.33-6.45,6.73-6.21,11.22c0.66,6.2,6.58,10.63,12.42,11.53
			c8.44,1.05,15.54-9.64,11.15-16.96c-2.77-4.51-7.92-7.3-13.19-7.45c-0.54-1.49-0.67-3.3-2.05-4.32
			C87.46,154.51,85.02,158.52,86.84,160.48z M76.99,161.22c-0.93,1.43-1.86,2.85-2.79,4.28c3.2-1.25,7.29-1.48,9.14-4.81
			C81.22,160.82,79.11,161.02,76.99,161.22z M554.37,167.65c0.93,1.21,1.87,2.41,2.82,3.62c1.19-0.94,2.4-1.89,3.61-2.83
			c-0.95-1.19-1.88-2.38-2.82-3.57C556.77,165.79,555.57,166.72,554.37,167.65z M571.63,178.61c0.78,1.25,1.57,2.51,2.37,3.78
			c4.39-2.73,8.75-5.5,13.15-8.22c-2.66,5.49-5.38,10.94-8.06,16.41c0.86,1.36,1.71,2.71,2.58,4.07
			c6.72-4.23,13.47-8.42,20.21-12.64c-0.81-1.27-1.59-2.54-2.38-3.8c-4.49,2.82-8.98,5.63-13.49,8.42
			c2.78-5.57,5.56-11.14,8.34-16.71c-0.84-1.32-1.68-2.64-2.5-3.95C585.09,170.16,578.36,174.38,571.63,178.61z M70.29,183.67
			c1.53,0.65,2.69-0.67,3.9-1.39c-1.19,1.72-2.23,3.52-3.23,5.35c4.21,2.29,8.49,4.45,12.69,6.77c1.45,0.88,3.18,1.76,3.71,3.53
			c0.35,3.1-2.65,7.02-6.02,5.65c-5.09-2.2-9.82-5.16-14.77-7.63c-0.75,1.41-1.5,2.82-2.25,4.24c5.38,2.71,10.5,5.99,16.14,8.16
			c3.47,1.34,7.25-0.76,8.95-3.84c2.26-3.29,3.87-8.35,0.58-11.52c-4.29-3.53-9.55-5.59-14.36-8.29c-0.18-2.14-0.14-5.11-2.7-5.82
			C70.72,179.03,69.27,181.73,70.29,183.67z M606.39,199.14c1.06,2.1,2.13,4.2,3.21,6.31c-5.88,3.01-11.77,6-17.65,8.99
			c0.71,1.43,1.42,2.86,2.15,4.3c5.91-2.97,11.77-6.02,17.68-9c1.07,2.1,2.13,4.19,3.2,6.29c1.19-0.61,2.39-1.22,3.6-1.83
			c-2.87-5.63-5.72-11.26-8.6-16.88C608.78,197.92,607.58,198.53,606.39,199.14z M57.01,215.97c-2.5,4.29-3.8,9.14-5.72,13.69
			c7.4,2.9,14.84,5.69,22.25,8.57c0.59-1.49,1.18-2.99,1.77-4.48c-3.14-1.22-6.29-2.42-9.43-3.64c0.88-1.45,1.37-3.49,3.2-4.02
			c3.29-1.16,6.77-1.66,10.14-2.53c0.67-1.78,1.34-3.56,2.02-5.34c-4.28,0.85-8.78,1.28-12.6,3.6c-0.08-1.64,0.26-3.41-0.54-4.91
			C66.11,212.9,59.47,211.96,57.01,215.97z M630.18,225.24c-0.08,2.14,3.68,3.08,2.16,5.11c-2.02,0.13-4.02,0.02-6.02,0.14
			c1.39,2.37,5.67,3.57,7.92,1.68C636.19,229.18,633.49,225.39,630.18,225.24z M598.83,228.52c0.58,1.59,1.18,3.19,1.77,4.8
			c1.91-0.01,3.83-0.01,5.76,0c1.07,2.98,2.16,5.96,3.26,8.93c-1.46,1.27-2.93,2.54-4.38,3.82c0.58,1.64,1.18,3.29,1.78,4.95
			c6.38-5.73,12.78-11.42,19.15-17.16c-0.57-1.58-1.14-3.16-1.71-4.74C615.92,228.85,607.37,228.7,598.83,228.52z M48.06,237.04
			c-1.71,6.07-3.5,12.13-5.21,18.2c1.29,0.37,2.58,0.74,3.87,1.12c0.66-2.27,1.31-4.54,1.97-6.8c6.35,1.8,12.69,3.66,19.05,5.45
			c0.44-1.54,0.87-3.09,1.3-4.63c-6.34-1.81-12.68-3.65-19.02-5.46c0.64-2.26,1.28-4.53,1.92-6.79
			C50.65,237.76,49.35,237.4,48.06,237.04z M608.24,255.72c0.4,1.54,0.83,3.09,1.26,4.65c7.67-2.07,15.36-4.12,23.04-6.19
			c-0.42-1.55-0.84-3.1-1.25-4.65C623.61,251.59,615.92,253.65,608.24,255.72z M38.12,357.15c-3.85,0.96-5.42,5.39-4.75,8.98
			c0.13,3.81,2.32,8.37,6.7,8.4c5.88,0.02,11.68-1.2,17.52-1.79c-0.18-1.53-0.36-3.05-0.54-4.56c-5.38,0.51-10.72,1.58-16.13,1.72
			c-4.42,0.15-5.02-7.58-0.86-8.51c5.21-1.12,10.57-1.39,15.84-2.15c-0.17-1.53-0.34-3.07-0.51-4.59
			C49.65,355.51,43.77,355.69,38.12,357.15z M619.81,370.25c2,3.01,6.74,3.47,9.2,0.77c2.59-2.88,2.82-7.07,5.06-10.18
			c3.53-1.45,5.11,3.46,3.88,6.05c-0.53,2.07-2.8,2.57-4.47,3.35c0.01,1.47,0.03,2.94,0.07,4.42c2.68-0.61,5.81-1.33,7.18-4.02
			c1.86-3.71,2.33-8.74-0.22-12.22c-2.94-3.83-9.77-3.02-11.44,1.63c-1.81,2.65-1.48,7.67-5.14,8.39c-3-2.24-1.74-7.74,2.09-8.29
			c0.06-1.55,0.13-3.09,0.2-4.63C618.99,355.64,616.66,364.9,619.81,370.25z M616.88,380.88c4.98,0.97,9.97,1.93,14.95,2.92
			c-5.58,2.1-11.16,4.19-16.75,6.27c-0.29,1.46-0.57,2.93-0.85,4.4c7.48,1.47,14.97,2.93,22.46,4.36c0.2-1.05,0.61-3.14,0.81-4.19
			c-4.87-0.95-9.74-1.91-14.61-2.83c5.45-2.12,10.93-4.15,16.38-6.25c0.29-1.51,0.58-3.03,0.88-4.53
			c-7.48-1.44-14.96-2.9-22.44-4.36C617.43,378.07,617.14,379.47,616.88,380.88z M35.48,382.74c0.24,1.4,0.49,2.8,0.74,4.21
			c4.89-0.83,9.78-1.72,14.67-2.57c-4.34,3.91-8.72,7.78-13.06,11.68c0.27,1.51,0.53,3.02,0.8,4.55c7.51-1.34,15.03-2.64,22.53-3.99
			c-0.25-1.4-0.51-2.81-0.76-4.21c-5,0.88-10,1.78-15.01,2.62c4.47-3.93,8.93-7.89,13.39-11.83c-0.25-1.48-0.51-2.95-0.76-4.42
			C50.5,380.09,42.99,381.42,35.48,382.74z M616.37,402.4c-5.25,2.29-7.66,9.02-5.91,14.29c2.17,5.66,9.01,8.03,14.63,7.23
			c8.06-1.33,11.54-13.06,5.61-18.61C626.93,401.95,621.14,400.54,616.37,402.4z M40.46,407.48c0.35,1.48,0.7,2.98,1.05,4.47
			c7.43-1.68,14.83-3.46,22.26-5.12c-0.33-1.51-0.65-3.01-0.98-4.51C55.34,404.02,47.9,405.73,40.46,407.48z M44.53,423.92
			c0.53,1.55,1.07,3.1,1.61,4.66c8.09,0.09,16.19,0.19,24.28,0.28c-0.52-1.53-1.04-3.07-1.55-4.59c-5.95,0.01-11.9,0.13-17.85,0.19
			c4.69-3.67,9.4-7.33,14.1-10.99c-0.54-1.58-1.09-3.17-1.63-4.74C57.18,413.81,50.85,418.86,44.53,423.92z M605.13,428.42
			c7.2,2.48,14.41,4.97,21.63,7.44c0.49-1.45,1-2.9,1.51-4.34c-7.21-2.51-14.43-4.96-21.63-7.47
			C606.12,425.5,605.62,426.96,605.13,428.42z M604.29,432.09c-2.37,5.56-4.72,11.14-7.09,16.7c1.18,0.51,2.36,1.02,3.56,1.54
			c0.88-2.08,1.75-4.16,2.64-6.23c5.84,2.44,11.67,4.94,17.51,7.41c0.59-1.43,1.19-2.85,1.79-4.27c-5.83-2.46-11.66-4.93-17.48-7.41
			c0.88-2.08,1.75-4.16,2.64-6.23C606.66,433.09,605.47,432.59,604.29,432.09z M50.06,440.73c2.16,5.38,4.33,10.76,6.53,16.13
			c0.88-0.36,2.65-1.08,3.53-1.44c-1.56-3.96-3.17-7.9-4.76-11.85c1.92-0.78,3.84-1.57,5.75-2.34c1.45,3.54,2.88,7.08,4.3,10.63
			c1.19-0.47,2.39-0.94,3.58-1.4c-1.41-3.57-2.86-7.12-4.29-10.67c1.56-0.64,3.13-1.27,4.69-1.89c1.55,3.81,3.09,7.62,4.64,11.43
			c1.19-0.49,2.38-0.97,3.58-1.45c-2.1-5.24-4.23-10.48-6.35-15.72C64.19,435.01,57.13,437.87,50.06,440.73z M58.83,462.72
			c0.7,1.36,1.39,2.73,2.09,4.1c2.89-1.46,5.77-2.95,8.67-4.39c2.88,4.96-2.03,9.35-3.94,13.68c0.84,1.64,1.67,3.28,2.5,4.93
			c2.13-3.61,4.71-7.09,5.52-11.29c1.31,1.15,2.58,2.66,4.43,2.85c4.07,0.67,8.57-3.4,7.15-7.6c-1.5-4.45-4.02-8.44-6.03-12.66
			C72.41,455.78,65.62,459.24,58.83,462.72z M590.68,463.68c5.68,5.87,11.28,11.83,16.97,17.71c0.68-1.49,1.36-2.96,2.06-4.43
			c-1.3-1.31-2.6-2.6-3.9-3.9c1.27-2.78,2.56-5.55,3.87-8.31c1.84,0.13,3.68,0.27,5.52,0.41c0.71-1.53,1.41-3.04,2.13-4.55
			c-8.2-0.45-16.4-0.94-24.6-1.38C592.04,460.71,591.36,462.19,590.68,463.68z M82.25,480.05c-1.25,4.25,2.19,8.31,1.19,12.48
			c-2.22,2.34-5.51-0.3-6.16-2.77c-1.11-2.11,0.51-4.03,1.62-5.69c-0.86-1.2-1.74-2.41-2.61-3.59c-1.69,1.86-3.67,3.85-3.66,6.56
			c0.07,3.66,2.16,7.06,4.81,9.47c3.5,3.01,9.76,1.07,10.82-3.45c0.83-4.1-1.78-7.94-1.59-12.01c3.49-3.28,7.52,4.4,4.1,6.96
			c0.8,1.29,1.62,2.56,2.44,3.84c5.73-4.02,2.6-12.48-2.58-15.4C87.52,474.73,83.15,476.63,82.25,480.05z M579.5,488.93
			c1.59,4.89,6.47,8.2,11.38,9.1c6.24,1.07,12.08-4.9,11.58-11.03c-0.19-2.28-1.67-4.1-2.89-5.92c-1.17,1.01-2.33,2.02-3.49,3.04
			c1.76,2.2,3.13,5.45,0.81,7.81c-3.18,3.54-8.28,0.85-11.22-1.61c-2.54-1.77-3.29-5.55-1.25-7.98c1.16-1.9,3.55-1.8,5.5-1.9
			c0.44-1.45,0.87-2.9,1.32-4.35C583.98,474.03,577.4,482.12,579.5,488.93z M82.45,505.55c0.9,1.23,1.81,2.47,2.71,3.72
			c6.18-4.47,12.33-8.97,18.5-13.43c-0.9-1.25-1.8-2.5-2.69-3.74C94.78,496.57,88.61,501.05,82.45,505.55z M570.31,497.8
			c6.33,4.27,12.64,8.55,18.98,12.8c0.84-1.29,1.69-2.57,2.55-3.84c-6.33-4.27-12.64-8.55-18.97-12.78
			C572.01,495.25,571.16,496.52,570.31,497.8z M102.95,501.9c1.38,1.77,2.77,3.54,4.14,5.33c-4.97,3.9-9.96,7.8-14.95,11.7
			c0.94,1.21,1.89,2.42,2.84,3.64c4.99-3.9,9.97-7.81,14.97-11.69c1.39,1.76,2.78,3.54,4.17,5.31c1.02-0.79,2.04-1.58,3.06-2.36
			c-3.72-4.8-7.47-9.57-11.21-14.35C104.96,500.28,103.95,501.09,102.95,501.9z M565.03,505.53c3.95,3.19,7.89,6.39,11.83,9.59
			c-5.93-0.75-11.85-1.56-17.77-2.32c-0.93,1.16-1.86,2.32-2.78,3.5c5.92,4.79,11.85,9.58,17.77,14.39c0.89-1.12,1.79-2.23,2.7-3.34
			c-3.85-3.13-7.71-6.24-11.56-9.36c5.79,0.7,11.58,1.46,17.38,2.19c0.96-1.2,1.91-2.4,2.89-3.6c-5.92-4.8-11.84-9.6-17.77-14.39
			C566.82,503.3,565.92,504.42,565.03,505.53z M113.29,530.22c-2.15,2.35-4.76,4.22-7.11,6.36c1.01,1.16,2.01,2.31,3.02,3.48
			c2.5-2.04,4.71-4.46,7.43-6.19c5.05-1.14,10.24-1.56,15.34-2.49c-1.17-1.34-2.33-2.67-3.49-4c-3.42,0.66-6.84,1.31-10.27,1.96
			c1.1-3.34,2.2-6.68,3.29-10.02c-1.19-1.35-2.37-2.7-3.56-4.04C116.31,520.23,115.2,525.36,113.29,530.22z M549.5,524.56
			c3.44,3.19,7.02,6.24,10.45,9.46c1.28,1.28,2.99,2.91,2.17,4.94c-1.1,2.43-4.27,4.81-6.78,2.76c-4.18-3.22-7.87-7.01-11.85-10.44
			c-1.04,1.13-2.08,2.27-3.11,3.42c4.48,3.8,8.5,8.2,13.4,11.49c3.36,2.2,7.6,0.24,9.88-2.6c2.65-2.54,4.51-6.97,1.9-10.2
			c-3.84-4.56-8.66-8.16-12.97-12.25C551.55,522.28,550.52,523.41,549.5,524.56z M531.82,542.45c2.32,4.87,5.07,9.54,7.55,14.34
			c-4.55-2.86-9.1-5.71-13.64-8.57c-1.7,1.56-3.38,3.14-5.06,4.72c5.2,5.56,10.38,11.15,15.59,16.71c1.04-0.97,2.09-1.94,3.14-2.9
			c-4-4.35-8.09-8.61-12.05-12.99c5.16,3.23,10.24,6.61,15.38,9.88c1.07-1.01,2.15-2.01,3.23-3.01c-2.94-5.42-5.97-10.78-8.88-16.21
			c4.06,4.37,8.14,8.73,12.21,13.1c1.04-0.97,2.08-1.95,3.13-2.92c-5.19-5.58-10.39-11.16-15.6-16.73
			C535.16,539.41,533.5,540.94,531.82,542.45z M137.44,542.55c-4.51,1.2-8.01,5.12-9.53,9.43c-2.26,6.86,4.29,14.13,11.14,14.07
			c5.38-0.33,9.74-4.78,11.49-9.63C153.09,548.91,145,540.56,137.44,542.55z M158.69,555.93c-4.69,6-9.38,11.99-14.06,17.99
			c1.2,0.95,2.41,1.91,3.61,2.87c2-2.55,4-5.11,6-7.67c2.51,1.96,5.02,3.92,7.53,5.87c0.79-1.02,1.59-2.03,2.38-3.04
			c-2.51-1.97-5.02-3.93-7.52-5.9c1.1-1.42,2.21-2.83,3.33-4.23c2.91,2.24,5.81,4.52,8.7,6.79c0.8-1.01,1.6-2.03,2.4-3.03
			C166.95,562.34,162.84,559.11,158.69,555.93z M511.94,560.01c2,4.98,4.08,9.94,6.08,14.93c-4.2-3.32-8.45-6.56-12.59-9.93
			c-1.9,1.33-3.76,2.72-5.61,4.12c4.55,6.11,9.18,12.17,13.73,18.28c1.15-0.86,2.3-1.71,3.45-2.56c-3.56-4.77-7.17-9.5-10.73-14.27
			c4.78,3.65,9.28,7.69,14.14,11.24c1.43-0.16,2.51-1.64,3.78-2.31c-2.36-5.69-4.8-11.35-7.14-17.04c3.6,4.73,7.18,9.49,10.76,14.24
			c1.12-0.87,2.26-1.73,3.4-2.59c-4.57-6.09-9.16-12.17-13.75-18.24C515.61,557.24,513.77,558.62,511.94,560.01z M180.07,571.98
			c-0.68,1.09-1.36,2.19-2.04,3.3c1.92,1.19,3.84,2.38,5.76,3.59c-3.36,5.37-6.73,10.73-10.07,16.11c1.3,0.81,2.6,1.62,3.91,2.44
			c3.36-5.37,6.71-10.74,10.07-16.1c1.91,1.18,3.83,2.38,5.74,3.57c0.68-1.09,1.37-2.18,2.06-3.26
			C190.36,578.4,185.22,575.19,180.07,571.98z M489.4,575.65c-3.26,1.35-6.46,3.8-7.35,7.38c-1.48,5.31,1.66,10.88,5.86,14.02
			c6.91,5.01,18.05-1.74,16.98-10.16C504.13,579.8,496.83,572.54,489.4,575.65z M198.15,583.53c-3.47,6.79-6.93,13.58-10.39,20.38
			c1.37,0.69,2.74,1.39,4.12,2.09c1.43-2.8,2.86-5.6,4.24-8.42c1.23,0.76,3.05,1.15,3.52,2.73c0.92,3.4,1.03,6.96,1.52,10.45
			c1.63,0.81,3.26,1.64,4.9,2.46c-0.39-4.16-0.35-8.47-2.13-12.34c1.6,0.09,3.32,0.6,4.86-0.12c3.88-1.61,5.41-7.74,1.82-10.44
			C206.78,587.52,202.29,585.8,198.15,583.53z M462.28,592.31c-3.28,5.21-0.72,12.12,3.42,16.06c4.6,4.4,12.89,2.64,15.79-2.85
			c1.07-2.01,0.8-4.34,0.84-6.52c-1.54,0.2-3.07,0.41-4.6,0.63c0.19,2.61-0.14,6-3.15,6.84c-4.7,1.75-7.78-3.44-8.93-7.19
			c-1.25-2.93,0.23-6.67,3.39-7.53c2.01-0.86,3.86,0.55,5.55,1.45c1.13-0.99,2.27-1.97,3.41-2.95
			C473.65,585.37,465.51,587.04,462.28,592.31z M208.17,614.67c1.5,0.58,3.01,1.18,4.51,1.78c1.22-1.38,2.43-2.78,3.64-4.18
			c2.85,1.06,5.7,2.14,8.55,3.23c0.01,1.86,0.01,3.72,0.02,5.6c1.56,0.6,3.12,1.18,4.68,1.8c-0.08-8.22-0.23-16.43-0.32-24.64
			c-1.53-0.59-3.05-1.18-4.57-1.75C219.18,602.56,213.66,608.6,208.17,614.67z M428.24,605.6c2.74,7.1,5.46,14.21,8.19,21.33
			c3.87-1.6,8.05-2.64,11.6-4.93c3.65-2.52,4.02-7.64,2.59-11.5c-1.36-4.34-4.61-9.05-9.62-9.1
			C436.51,601.89,432.46,604.13,428.24,605.6z M241.3,603.1c-2.47,7.2-4.96,14.4-7.44,21.6c1.34,0.46,2.7,0.93,4.05,1.4
			c1.63-4.69,3.21-9.4,4.87-14.07c1.27,5.7,2.56,11.39,3.87,17.09c1.45,0.49,2.9,0.98,4.36,1.49c2.49-7.21,4.96-14.42,7.45-21.62
			c-1.36-0.47-2.7-0.94-4.05-1.4c-1.64,4.72-3.27,9.45-4.87,14.2c-1.63-5.69-2.63-11.52-4-17.26
			C244.12,604.04,242.71,603.57,241.3,603.1z M419.62,608.19c1.33,4.91,2.63,9.83,3.95,14.74c-4.38-4.11-8.68-8.3-13.11-12.36
			c-1.4,0.41-2.81,0.81-4.2,1.22c1.97,7.36,3.91,14.73,5.92,22.08c1.04-0.28,3.1-0.84,4.14-1.12c-1.32-4.8-2.58-9.61-3.88-14.4
			c4.27,4,8.52,8.02,12.8,12.02c1.48-0.4,2.96-0.81,4.45-1.19c-1.97-7.36-3.94-14.73-5.92-22.09
			C422.38,607.45,421,607.82,419.62,608.19z M262.18,620.79c2.31,3.56,7.2,3.98,9.78,7.21c0.54,3.2-3.55,4.12-5.85,3.01
			c-2.45-0.55-2.98-3.16-3.42-5.22c-1.48-0.19-2.95-0.36-4.42-0.51c0.24,2.68,0.49,5.8,2.87,7.54c3,2.25,7.14,3.13,10.79,2.27
			c5.07-1.36,6.5-9.08,1.91-11.9c-2.49-2.28-7.08-2.71-8.15-6.14c2.03-3.46,8.06-1.12,8.06,2.78c1.5,0.27,3,0.54,4.5,0.82
			c0.9-7-7.5-10.45-13.16-8.61C261.71,613.24,260.15,617.8,262.18,620.79z M390.37,615.31c-1.74,7.99-3.5,15.98-5.22,23.97
			c1.61-0.26,3.22-0.52,4.83-0.77c0.35-1.81,0.7-3.61,1.05-5.41c3.01-0.49,6.01-0.97,9.03-1.45c0.93,1.61,1.87,3.22,2.81,4.84
			c1.64-0.29,3.29-0.57,4.94-0.84c-4.23-7.03-8.41-14.09-12.63-21.13C393.57,614.77,391.97,615.04,390.37,615.31z M280.99,638.27
			c1.52,0.19,3.03,0.38,4.56,0.58c0.35-2.85,0.71-5.69,1.06-8.53c3.26,0.2,6.71,1.21,9.88-0.02c4.95-2.16,5.32-10.64,0.14-12.73
			c-4.18-1.24-8.58-1.36-12.86-1.99C282.83,623.14,281.89,630.7,280.99,638.27z M310.46,619.66c-6.08,2.66-7.59,10.65-5.52,16.4
			c2.85,7.52,14.75,8.79,19.18,2.11c3.13-5.02,3.25-12.75-1.54-16.8C319.26,618.65,314.41,618.15,310.46,619.66z M353.95,619.6
			c0.06,0.96,0.16,2.89,0.21,3.85c2.26-0.11,4.52-0.22,6.78-0.32c0.33,6.29,0.64,12.59,0.97,18.88c1.54-0.06,3.08-0.11,4.62-0.16
			c-0.3-6.33-0.68-12.66-0.99-18.98c2.25-0.13,4.5-0.26,6.77-0.37c-0.05-0.96-0.15-2.89-0.2-3.86
			C366.06,618.95,360.01,619.29,353.95,619.6z M331.44,620.24c0,7.63-0.03,15.27,0.02,22.9c1.53-0.02,3.06-0.02,4.6-0.02
			c0-3.26-0.01-6.51,0.04-9.76c5.8-0.28,7.35,6.21,10.48,9.81c1.8-0.03,3.59-0.06,5.39-0.07c-2.23-3.52-4.14-7.4-7.52-9.99
			c1.5-0.68,3.3-1.05,4.36-2.42c2.7-3.25,1.19-9.3-3.22-10.07C340.91,619.92,336.15,620.35,331.44,620.24z"/>
	</g>
	<path fill="#FFFBA2" d="M359.71,46.5c1.33-2.84,2.66-5.69,4.01-8.52c0.83,3.02,1.65,6.04,2.48,9.06
		C364.04,46.86,361.87,46.68,359.71,46.5z"/>
	<path fill="#FFFBA2" d="M389.42,40.69c3.5-1.79,8.51,0.37,9.09,4.4c0.46,3.39-0.3,7.19-2.69,9.73c-3.16,3.17-9.32,1.46-10.34-2.91
		C384.69,47.95,385.65,42.85,389.42,40.69z"/>
	<path fill="#FFFBA2" d="M252.35,47.47c2.75-1.46,6.5-0.71,8.15,2.03c1.83,2.98,2.83,6.96,1.32,10.27
		c-1.92,3.91-8.06,4.52-10.57,0.88C248.49,56.89,247.4,49.94,252.35,47.47z"/>
	<path fill="#FFFBA2" d="M476.38,71.51c4.11-1.91,9.54,1.9,8.8,6.48c-0.6,3.43-2.56,6.89-5.71,8.53c-4.16,2.03-9.58-1.93-8.79-6.53
		C471.28,76.59,473.19,73.09,476.38,71.51z"/>
	<path fill="#FFFBA2" d="M179.6,82.07c2.52,1.87,5.05,3.75,7.56,5.63c-1.81,1.18-3.63,2.35-5.45,3.51
		C181,88.17,180.29,85.12,179.6,82.07z"/>
	<path fill="#FFFBA2" d="M151.67,99.74c2.64-1.84,5.59-5.33,9.14-3.57c3.08,2.02,5.64,5.22,6.51,8.83c0.11,3.53-3.66,5.17-5.91,7.22
		c-1.31-1.68-2.63-3.36-3.94-5.04c1.34-1.05,2.68-2.1,4.02-3.15c-0.46-0.6-1.38-1.79-1.84-2.39c-1.35,1.05-2.7,2.1-4.05,3.15
		C154.29,103.11,152.98,101.43,151.67,99.74z"/>
	<path fill="#FFFBA2" d="M566.22,156.43c2.96-0.97,5.93-1.93,8.91-2.87c-1.63,2.68-3.27,5.34-4.93,8
		C568.87,159.85,567.54,158.14,566.22,156.43z"/>
	<path fill="#FFFBA2" d="M90.32,165.38c4.1-1.33,8.33,1.48,10.74,4.64c2.6,3.54,0.1,9.05-4.16,9.68c-3.82,0.45-7.5-1.98-9.7-4.95
		C84.97,171.53,86.76,166.74,90.32,165.38z"/>
	<path fill="#FFFBA2" d="M59.74,219.61c1.29-2.26,5.19-1.09,5.23,1.44c-0.39,2.71-1.59,5.21-2.54,7.75
		c-1.88-0.72-3.75-1.45-5.63-2.17C57.72,224.26,58.46,221.81,59.74,219.61z"/>
	<path fill="#FFFBA2" d="M610.65,233.33c3.12-0.01,6.25,0,9.38,0.01c-2.38,2.04-4.77,4.07-7.16,6.1
		C612.12,237.4,611.38,235.36,610.65,233.33z"/>
	<path fill="#FFFBA2" d="M0,315.83c0.78-3.97,1.48-7.96,1.91-11.98c-0.52,8.39-1,16.78-1.4,25.17c-0.63,14.08,0.65,28.14,1.38,42.18
		c-0.46-4.18-1.19-8.34-1.89-12.48V315.83z"/>
	<path fill="#FFFBA2" d="M618.38,406.49c5.04-1.16,12.81,2.26,10.97,8.48c-1.66,5.81-9.56,5.16-13.38,1.97
		C612.33,414.11,613.9,407.46,618.38,406.49z"/>
	<path fill="#FFFBA2" d="M72.68,460.83c1.73-0.88,3.45-1.76,5.18-2.63c1.11,2.23,2.42,4.4,3.17,6.8c0.57,2.36-2.87,4.27-4.55,2.5
		C74.86,465.49,73.88,463.08,72.68,460.83z"/>
	<path fill="#FFFBA2" d="M596.53,463.74c3,0.25,6.01,0.5,9.02,0.75c-0.89,1.87-1.77,3.75-2.65,5.63
		C600.76,468,598.64,465.88,596.53,463.74z"/>
	<path fill="#FFFBA2" d="M137.39,547.51c4.16-2.87,10.37,1.65,9.06,6.47c-1.26,4.96-7.74,10.32-12.46,6.02
		C129.67,556.17,133.22,549.8,137.39,547.51z"/>
	<path fill="#FFFBA2" d="M490.38,579.56c4.86-1.81,8.75,3.26,9.8,7.44c1.23,4.12-3.03,8.32-7.12,7.35
		c-3.48-0.85-5.65-4.28-6.62-7.51C485.51,583.81,487.45,580.54,490.38,579.56z"/>
	<path fill="#FFFBA2" d="M200.48,589.08c2.26,1.17,4.66,2.15,6.69,3.72c1.68,1.59,0.06,4.85-2.19,4.64
		c-2.52-0.7-4.79-2.02-7.11-3.19C198.74,592.52,199.61,590.8,200.48,589.08z"/>
	<path fill="#FFFBA2" d="M219.08,609.16c1.96-2.27,3.93-4.54,5.88-6.81c-0.01,3.01-0.05,6.02-0.08,9.04
		C222.95,610.65,221.01,609.9,219.08,609.16z"/>
	<path fill="#FFFBA2" d="M433.94,607.5c2.91-0.85,6.55-3.28,9.26-0.71c2.27,2.46,3.42,5.86,3.67,9.16
		c-0.04,3.88-4.76,4.44-7.47,5.77C437.55,616.99,435.74,612.25,433.94,607.5z"/>
	<path fill="#FFFBA2" d="M287.87,619.95c2.23,0.47,4.82,0.22,6.75,1.61c1.96,1.52,0.78,5.13-1.67,5.27
		c-1.97,0.09-3.92-0.19-5.86-0.34C287.34,624.3,287.6,622.12,287.87,619.95z"/>
	<path fill="#FFFBA2" d="M393.57,620.22c1.48,2.61,2.96,5.23,4.43,7.87c-2.06,0.31-4.11,0.63-6.16,0.95
		C392.4,626.09,392.97,623.15,393.57,620.22z"/>
	<path fill="#FFFBA2" d="M312.37,623.48c3.55-2.04,8.67,0.37,9.02,4.54c0.89,4.34-1.03,10.72-6.41,10.51
		C307.49,638.35,306.91,626.79,312.37,623.48z"/>
	<path fill="#FFFBA2" d="M336.06,624.1c2.51,0.04,5.06-0.16,7.55,0.29c2.35,0.53,2.38,4.56,0.04,5.16
		c-2.49,0.52-5.06,0.31-7.58,0.37C336.06,627.98,336.06,626.03,336.06,624.1z"/>
	<path fill="#FFFBA2" d="M327.11,675.42c9.48,0.04,18.95-0.31,28.43-0.65c-2.62,0.46-5.23,1.01-7.88,1.23h-18.85L327.11,675.42z"/>
</g>
<g>
	<g>
		<path fill="#FACB01" d="M303.86,1.91c8.71-0.53,17.43-0.99,26.14-1.44c9.57-0.46,19.14,0.27,28.7,0.53
			c54.77,3.05,108.56,20.41,155.24,49.13c31.3,19.29,59.52,43.61,83.05,71.88c45.98,54.81,73.8,124.6,77.67,196.06
			c1.13,12.59,1.33,25.28,0.1,37.87c-2.86,55.07-19.69,109.33-48.41,156.39c-33.86,55.88-84.18,101.68-143.13,129.89
			c-39.84,19.16-83.53,30.28-127.68,32.55c-9.48,0.34-18.95,0.69-28.43,0.65c-15.62-1.19-31.29-2.23-46.72-5.07
			C206,657.71,136.53,618.84,86.37,562.54C38.84,509.88,8.74,441.82,1.89,371.2c-0.73-14.04-2.01-28.1-1.38-42.18
			c0.4-8.39,0.88-16.78,1.4-25.17c4.66-45.99,18.91-90.97,41.69-131.21c29.26-51.96,72.45-96,123.91-126.15
			C209.03,22,255.91,6.76,303.86,1.91z M326.35,17.47c-57.99,1.89-115.34,20.16-163.78,52.09
			C96.01,112.99,46.46,181.84,27.09,258.99c-9.03,35.17-11.77,71.9-8.5,108.05C23.3,419.46,41.32,470.6,70.51,514.4
			c38.57,58.29,96.57,103.46,162.67,126.26c44.05,15.31,91.5,20.8,137.87,15.85c74.83-7.49,146.36-42.83,198.06-97.39
			c51.7-53.6,83.79-125.76,88.43-200.13c3.19-46.42-4.09-93.51-20.89-136.89c-27.37-70.83-80.85-131.04-147.8-166.82
			C439.33,28.53,382.6,15.32,326.35,17.47z"/>
	</g>
	<g>
		<path fill="#FACB01" d="M327.34,66.52C388,64,449.18,82.83,497.98,118.92c28.16,20.66,52.33,46.75,70.7,76.45
			c21.12,34.01,34.55,72.77,38.84,112.58c4.86,43.34-0.96,87.86-16.97,128.44c-25.57,65.7-77.73,120.51-142.17,149.15
			c-40.32,18.2-85.21,26.05-129.32,23c-41.93-2.82-83.1-15.71-119.2-37.2c-31.33-18.5-58.84-43.43-80.48-72.67
			c-33.06-44.44-51.92-99.29-52.93-154.68c-0.74-27.9,2.97-55.91,10.89-82.67c20.3-69.71,69.95-130.18,134.29-163.79
			C247.19,78.58,287.11,68.08,327.34,66.52z M316.51,80.94c-57.17,4.54-112.41,29.16-154.21,68.39
			c-33.95,31.55-59.23,72.38-72.09,116.93c-10.07,34.5-12.58,71.13-7.72,106.72c7.27,53.91,32.48,105.12,70.46,144.03
			c23.86,24.61,52.64,44.45,84.18,57.89c41.02,17.56,86.7,24.08,130.99,18.72c40.46-4.7,79.69-19.37,113.4-42.22
			c55.24-37.05,95.25-96.16,108.56-161.39c10.29-49.24,5.68-101.49-13.19-148.13c-13.26-32.93-33.43-63.04-58.8-87.87
			c-35.25-34.74-80.69-59.06-129.24-68.82C365.1,80.33,340.67,79.05,316.51,80.94z"/>
	</g>
	<g>
		<path fill="#FACB01" d="M250.16,96.86c24,11.49,47.7,23.6,71.6,35.31c3.33,1.42,6.42,4.09,10.25,3.71
			c28.09-1.03,56.39,3.9,82.46,14.42c39.41,15.72,73.54,44.23,96.22,80.07c23.1,36.21,34.27,79.93,31.01,122.78
			c-2.02,30.22-11.17,59.87-26.17,86.15c3.34,0.1,6.69,0.19,10.04,0.31c-8.96,13.11-18.22,26.01-27.28,39.04
			c-3.95-0.12-7.89-0.25-11.83-0.31c-23.72,24.94-53.71,43.96-86.62,54.2c-41.96,13.27-88.3,12.29-129.64-2.83
			c-33.75-12.22-64.1-33.62-86.98-61.27c-4.99-0.19-9.99-0.22-14.97-0.58c-8.81-13.02-17.77-25.94-26.44-39.05
			c5.24,0.15,10.48,0.45,15.73,0.48c-14.72-29.38-22.22-62.39-21.25-95.27c0.81-48.02,19.89-95.27,52.05-130.86
			c-3.32-16.57,3.12-33.18,11.61-47.16C213.53,133.84,231.82,115.1,250.16,96.86z M312.75,164.74
			c-11.29,9.23-21.86,21.23-23.85,36.21c-2.06,15.33,5.47,29.88,14.22,41.9c16.95,22.8,39.19,40.83,58.11,61.87
			c8.18,9.2,16.19,19.07,20.31,30.84c2.98,8.22,2.77,17.7-1.47,25.45c-6.06,11.31-16.98,18.9-27.83,25.15
			c-6.25,3.13-11.62,7.66-17.32,11.65c-16.17,11.62-32.19,23.45-48.45,34.94c11.86,0.3,24.35,0.01,35.27,5.35
			c6.45,3.06,11.47,8.45,15.05,14.54c3.06-3.55,6.55-6.78,10.65-9.12c10.44-5.97,22.87-5.97,34.55-6.13
			c35.4,0.04,70.78,0.9,106.18,1.12c11.9-17.79,20.68-37.67,25.59-58.52c9.26-38.8,5.01-80.69-12-116.79
			c-17.54-37.77-48.65-69-86.36-86.69c-29.55-14.05-63.04-19.57-95.55-16.03C316.94,160.65,314.98,163.17,312.75,164.74z
			 M199.65,226.45c-25.07,30.6-39.09,69.8-39.84,109.31c48.07,0.04,96.13-0.06,144.2-0.05c5.12-0.09,10.75-0.52,14.9-3.83
			c3.13-2.7,1.64-7.45-0.43-10.33c-5.74-8.19-14.08-14.03-22.02-19.91c-31.32-24.75-62.6-49.57-93.89-74.37
			C201.74,226.72,200.66,225.47,199.65,226.45z M159.83,340.86c0.39,30.79,8.8,61.46,24.41,88.03c0.62,1.48,2.47,1.13,3.75,1.3
			c27.51,0.6,55,1.56,82.5,2.24C233.58,401.93,196.84,371.23,159.83,340.86z M310.48,354.55c1.64,1.13,2.9,3.82,5.19,3.22
			c3.84-1.09,7.49-2.75,11.29-3.99c-0.62-0.85-1.25-1.69-1.88-2.51C320.2,352.28,315.31,353.3,310.48,354.55z M272.96,363.8
			c2.7,2.31,5.4,4.63,8.02,7.03c7.41-2.69,14.79-5.49,22.12-8.4c-1.59-1.68-3.19-3.33-4.81-4.97
			C289.87,359.64,281.38,361.6,272.96,363.8z M221.89,376.84c4.47,3.59,8.42,7.84,13.13,11.11c11.51-3.67,22.72-8.35,34.05-12.57
			c-2.85-2.94-5.64-5.92-8.6-8.74C247.66,370.22,234.74,373.38,221.89,376.84z M216.62,469.54c8.72,8.04,18.11,15.39,28.21,21.63
			c31.71,19.85,69.8,29.3,107.11,26.49c36.82-2.43,72.59-16.95,101.04-40.38c-32.39-1.22-64.8-2.24-97.2-3.15
			c-3.34,10.58-14.78,17.97-25.8,15.76c-8.98-1.38-16.21-8.68-18.5-17.33C279.85,471.62,248.24,470.45,216.62,469.54z"/>
	</g>
</g>
<g>
	<path fill="#271756" d="M311.59,37.61c3.47-8.05,17.51-8.92,20.62-0.09c-1.53,0.43-3.06,0.85-4.58,1.27
		c-2.3-4.55-9.51-4.35-11.54,0.3c-1.77,4.4-0.57,11.52,4.81,12.66c3.22,0.51,8.56-1.04,7.35-5.32c-1.9,0.11-3.8,0.23-5.69,0.35
		c-0.09-1.34-0.17-2.67-0.26-4.01c3.45-0.23,6.9-0.47,10.35-0.7c0.23,3.26,0.46,6.51,0.67,9.76c-4.39,3.31-10.25,5.35-15.64,3.39
		C310.91,52.72,308.8,43.76,311.59,37.61z"/>
	<path fill="#271756" d="M341.48,31.39c1.6,0.06,3.2,0.11,4.81,0.17c-0.27,7.95-0.58,15.9-0.84,23.85
		c-1.61-0.06-3.21-0.12-4.81-0.18C340.9,47.28,341.22,39.34,341.48,31.39z"/>
	<g>
		<path fill="#271756" d="M361.7,32.22c1.69,0.13,3.38,0.27,5.08,0.41c2.48,8.21,4.98,16.41,7.44,24.63
			c-1.75-0.17-3.49-0.33-5.23-0.5c-0.53-1.85-1.06-3.69-1.57-5.54c-3.18-0.3-6.35-0.58-9.52-0.85c-0.82,1.74-1.64,3.49-2.45,5.24
			c-1.7-0.15-3.39-0.31-5.08-0.46C354.14,47.51,357.94,39.87,361.7,32.22z M359.71,46.5c2.16,0.18,4.33,0.36,6.49,0.54
			c-0.83-3.02-1.65-6.04-2.48-9.06C362.37,40.81,361.04,43.66,359.71,46.5z"/>
	</g>
	<path fill="#271756" d="M279.06,37.07c4.9-2.56,11.46-1.06,14,4.08c-1.45,0.65-2.89,1.29-4.34,1.93c-2.07-3.76-7.9-4.06-9.96-0.16
		c-1.4,3.57-0.59,7.83,1.26,11.1c1.7,2.94,6.4,3.29,8.49,0.59c0.79-1.25,1.06-2.74,1.54-4.13c1.59,0.2,3.18,0.41,4.78,0.63
		c-0.39,5.55-5.3,9.88-10.87,9.45C272.54,60.46,268.94,41.85,279.06,37.07z"/>
	<g>
		<path fill="#271756" d="M387.45,36.6c5.72-2.12,13.3,0.5,15.46,6.48c1.54,4.7,0.42,10.23-2.68,14.08
			c-5.4,6.36-17.54,3.55-19.61-4.55C379.3,46.67,381.46,39.14,387.45,36.6z M389.42,40.69c-3.77,2.16-4.73,7.26-3.94,11.22
			c1.02,4.37,7.18,6.08,10.34,2.91c2.39-2.54,3.15-6.34,2.69-9.73C397.93,41.06,392.92,38.9,389.42,40.69z"/>
	</g>
	<g>
		<path fill="#271756" d="M251.3,43.43c4.22-1.71,9.57-0.99,12.58,2.61c2.93,3.51,4.24,8.44,3.34,12.93
			c-1.87,8.05-13.79,11.29-19.38,5.14C242.21,58.27,242.41,45.99,251.3,43.43z M252.35,47.47c-4.95,2.47-3.86,9.42-1.1,13.18
			c2.51,3.64,8.65,3.03,10.57-0.88c1.51-3.31,0.51-7.29-1.32-10.27C258.85,46.76,255.1,46.01,252.35,47.47z"/>
	</g>
	<path fill="#271756" d="M421.27,46.98c0.44-1.27,0.87-2.55,1.32-3.82c5.96,2.06,11.94,4.11,17.91,6.17
		c-0.44,1.26-0.87,2.53-1.3,3.79c-2.23-0.75-4.46-1.5-6.69-2.24c-2.16,6.23-4.3,12.47-6.45,18.71c-1.52-0.52-3.04-1.04-4.56-1.56
		c2.15-6.25,4.33-12.5,6.44-18.76C425.72,48.5,423.49,47.74,421.27,46.98z"/>
	<path fill="#271756" d="M228.47,51.57c1.5-0.57,3-1.15,4.5-1.73c2.85,7.43,5.71,14.85,8.55,22.28c-1.5,0.57-3,1.14-4.49,1.72
		c-1.25-3.25-2.5-6.49-3.74-9.73c-2.95,1.12-5.9,2.25-8.83,3.4c1.26,3.23,2.5,6.47,3.74,9.71c-1.49,0.57-2.99,1.15-4.48,1.73
		c-2.87-7.42-5.7-14.86-8.57-22.28c1.5-0.57,3-1.14,4.51-1.7c1.13,2.9,2.25,5.82,3.35,8.74c2.95-1.12,5.89-2.25,8.83-3.39
		C230.72,57.4,229.6,54.49,228.47,51.57z"/>
	<path fill="#271756" d="M447.45,51.61c1.48,0.6,2.96,1.21,4.45,1.81c-1.16,2.9-2.34,5.8-3.5,8.7c2.92,1.19,5.84,2.37,8.76,3.54
		c1.16-2.9,2.33-5.79,3.5-8.69c1.49,0.6,2.98,1.19,4.47,1.79c-2.98,7.37-5.95,14.75-8.93,22.12c-1.5-0.6-2.98-1.2-4.47-1.79
		c1.29-3.21,2.57-6.42,3.93-9.61c-2.9-1.26-5.83-2.45-8.78-3.6c-1.31,3.22-2.61,6.44-3.9,9.66c-1.5-0.6-2.99-1.2-4.48-1.79
		C441.48,66.37,444.46,58.99,447.45,51.61z"/>
	<path fill="#271756" d="M479.93,63.76c1.82-0.78,3.54-2.05,5.53-2.33c1.21,0.51,2.35,1.17,3.52,1.8c0.18,1.95,0.38,3.91,0.58,5.86
		c-0.79-0.43-2.38-1.3-3.17-1.73c-0.13-0.77-0.38-2.3-0.51-3.06c-0.68,0.31-2.03,0.93-2.71,1.24
		C482.36,65.1,480.74,64.21,479.93,63.76z"/>
	<path fill="#271756" d="M193.32,67.71c1.4-0.77,2.8-1.53,4.21-2.29c3.77,7,7.48,14.04,11.23,21.06c-1.41,0.76-2.83,1.52-4.24,2.28
		C200.78,81.75,197.05,74.73,193.32,67.71z"/>
	<g>
		<path fill="#271756" d="M474.25,67.29c7.26-2.95,16.73,3.8,15.64,11.79c-0.64,4.59-3.36,9.05-7.44,11.35
			c-7.39,3.76-17.76-3.11-16.56-11.5C466.7,74.12,469.56,69.19,474.25,67.29z M476.38,71.51c-3.19,1.58-5.1,5.08-5.7,8.48
			c-0.79,4.6,4.63,8.56,8.79,6.53c3.15-1.64,5.11-5.1,5.71-8.53C485.92,73.41,480.49,69.6,476.38,71.51z"/>
	</g>
	<path fill="#271756" d="M257.15,69.39c1.47-0.4,2.95-0.8,4.43-1.2c0.39,1.46,0.79,2.93,1.19,4.39c-1.44,0.41-2.88,0.83-4.31,1.26
		C258.01,72.36,257.58,70.87,257.15,69.39z"/>
	<g>
		<path fill="#271756" d="M174.47,78.75c1.43-0.93,2.85-1.85,4.28-2.77c7.01,4.94,14.01,9.87,21.01,14.81
			c-1.48,0.95-2.95,1.9-4.41,2.85c-1.57-1.14-3.12-2.27-4.68-3.41c-2.69,1.73-5.37,3.47-8.02,5.24c0.44,1.85,0.88,3.72,1.31,5.58
			c-1.42,0.92-2.85,1.84-4.28,2.77C177.92,95.47,176.22,87.1,174.47,78.75z M179.6,82.07c0.69,3.05,1.4,6.1,2.11,9.14
			c1.82-1.16,3.64-2.33,5.45-3.51C184.65,85.82,182.12,83.94,179.6,82.07z"/>
	</g>
	<path fill="#271756" d="M488.13,98.21c4.46-6.6,8.89-13.21,13.36-19.79c1.28,0.88,2.58,1.76,3.88,2.65
		c-0.26,6.21-0.6,12.42-0.82,18.63c2.97-4.39,5.93-8.8,8.9-13.2c1.22,0.84,2.46,1.68,3.7,2.52c-4.42,6.6-8.89,13.18-13.33,19.78
		c-1.34-0.91-2.68-1.81-4.02-2.72c0.27-6.09,0.52-12.17,0.73-18.26c-2.89,4.3-5.8,8.58-8.68,12.89
		C490.6,99.87,489.36,99.04,488.13,98.21z"/>
	<g>
		<path fill="#271756" d="M316.51,80.94c24.16-1.89,48.59-0.61,72.34,4.25c48.55,9.76,93.99,34.08,129.24,68.82
			c25.37,24.83,45.54,54.94,58.8,87.87c18.87,46.64,23.48,98.89,13.19,148.13c-13.31,65.23-53.32,124.34-108.56,161.39
			c-33.71,22.85-72.94,37.52-113.4,42.22c-44.29,5.36-89.97-1.16-130.99-18.72c-31.54-13.44-60.32-33.28-84.18-57.89
			c-37.98-38.91-63.19-90.12-70.46-144.03c-4.86-35.59-2.35-72.22,7.72-106.72c12.86-44.55,38.14-85.38,72.09-116.93
			C204.1,110.1,259.34,85.48,316.51,80.94z M250.16,96.86c-18.34,18.24-36.63,36.98-50.21,59.14
			c-8.49,13.98-14.93,30.59-11.61,47.16c-32.16,35.59-51.24,82.84-52.05,130.86c-0.97,32.88,6.53,65.89,21.25,95.27
			c-5.25-0.03-10.49-0.33-15.73-0.48c8.67,13.11,17.63,26.03,26.44,39.05c4.98,0.36,9.98,0.39,14.97,0.58
			c22.88,27.65,53.23,49.05,86.98,61.27c41.34,15.12,87.68,16.1,129.64,2.83c32.91-10.24,62.9-29.26,86.62-54.2
			c3.94,0.06,7.88,0.19,11.83,0.31c9.06-13.03,18.32-25.93,27.28-39.04c-3.35-0.12-6.7-0.21-10.04-0.31
			c15-26.28,24.15-55.93,26.17-86.15c3.26-42.85-7.91-86.57-31.01-122.78c-22.68-35.84-56.81-64.35-96.22-80.07
			c-26.07-10.52-54.37-15.45-82.46-14.42c-3.83,0.38-6.92-2.29-10.25-3.71C297.86,120.46,274.16,108.35,250.16,96.86z"/>
	</g>
	<g>
		<path fill="#271756" d="M156.39,91.62c5.2-1.9,10.18,2.03,12.92,6.13c2.59,3.47,3.73,8.68,0.77,12.28
			c-2.87,3.27-6.67,5.52-9.99,8.3c-2.13-2.72-4.26-5.44-6.39-8.17c-0.5,0.37-1.49,1.1-1.99,1.47c-0.61-0.79-1.21-1.58-1.82-2.36
			c0.48-0.39,1.43-1.16,1.91-1.55c-2.12-2.73-4.25-5.45-6.39-8.17C149.06,96.91,152.29,93.56,156.39,91.62z M151.67,99.74
			c1.31,1.69,2.62,3.37,3.93,5.05c1.35-1.05,2.7-2.1,4.05-3.15c0.46,0.6,1.38,1.79,1.84,2.39c-1.34,1.05-2.68,2.1-4.02,3.15
			c1.31,1.68,2.63,3.36,3.94,5.04c2.25-2.05,6.02-3.69,5.91-7.22c-0.87-3.61-3.43-6.81-6.51-8.83
			C157.26,94.41,154.31,97.9,151.67,99.74z"/>
	</g>
	<path fill="#271756" d="M189.32,100.42c1.27-0.83,2.55-1.65,3.82-2.48c0.84,1.26,1.67,2.53,2.51,3.79
		c-1.28,0.85-2.56,1.69-3.83,2.53C190.99,102.98,190.15,101.7,189.32,100.42z"/>
	<path fill="#271756" d="M514.5,116.41c-3.81-8.25,4.62-18.95,13.54-17.36c6.32,1.26,12.26,8.04,9.21,14.64
		c-1.31-0.7-2.65-1.34-3.87-2.17c-0.27-2.56-0.28-5.62-2.92-6.97c-5.57-3.9-12.29,2.8-12.3,8.46c0.12,4.18,4.41,6.32,8.04,6.86
		c0.66-0.86,1.33-1.71,2.01-2.56c-1.43-1.15-2.86-2.3-4.28-3.46c0.84-1.04,1.66-2.07,2.51-3.11c2.71,2.16,5.41,4.34,8.09,6.54
		c-2.03,2.5-4.07,5-6.08,7.52C522.84,124.43,517.02,121.67,514.5,116.41z"/>
	<path fill="#271756" d="M119.59,129.85c-2.53-8.41,7.48-17.86,15.62-13.54c-0.81,1.39-1.67,2.75-2.54,4.11
		c-4.7-2.11-10.05,2.7-8.73,7.53c1.3,3.83,4.9,7.36,9.1,7.5c3.94-0.11,6.09-3.9,7.1-7.24c-0.79-0.74-1.58-1.47-2.37-2.2
		c-1.3,1.26-2.59,2.52-3.89,3.79c-0.93-0.97-1.86-1.94-2.79-2.9c2.48-2.4,4.97-4.79,7.42-7.2c2.32,2.31,4.59,4.67,6.84,7.04
		c-1.23,5.55-4.7,11.11-10.39,12.82C128.27,141.48,121.41,136.14,119.59,129.85z"/>
	<path fill="#271756" d="M554.27,120.89c1.19,1.27,2.38,2.55,3.57,3.82c-2.92,5.48-5.87,10.94-8.77,16.44
		c5.62-2.58,11.24-5.17,16.87-7.76c1.16,1.24,2.32,2.49,3.49,3.73c-7.76,3.35-15.53,6.7-23.3,10.03c-1.17-1.26-2.33-2.52-3.49-3.78
		C546.55,135.89,550.39,128.38,554.27,120.89z"/>
	<path fill="#271756" d="M105.2,138.34c0.82-1.18,1.73-2.28,2.63-3.4c6.24,4.95,12.56,9.8,18.8,14.74
		c-1.04,1.27-2.09,2.54-3.14,3.81c-6-0.77-12.01-1.37-18.02-2.04c4.07,3.2,8.16,6.38,12.24,9.58c-0.92,1.17-1.84,2.35-2.76,3.52
		c-6.27-4.9-12.54-9.78-18.8-14.7c0.96-1.22,1.92-2.45,2.88-3.68c6.18,0.7,12.36,1.4,18.55,2.12
		C113.54,144.87,109.01,142.01,105.2,138.34z"/>
	<path fill="#271756" d="M577.76,144.79c1.94-0.1,3.88-0.21,5.83-0.31c0.9,1.12,1.79,2.25,2.69,3.38c-0.59,1.85-1.17,3.71-1.73,5.56
		c-0.76-0.93-1.51-1.87-2.25-2.8c0.23-1.02,0.46-2.04,0.7-3.06c-0.71,0.04-2.13,0.12-2.85,0.16
		C579.34,146.75,578.55,145.77,577.76,144.79z"/>
	<g>
		<path fill="#271756" d="M553.49,155.51c8.18-2.47,16.36-4.92,24.54-7.37c1.03,1.33,2.07,2.66,3.11,4
			c-4.25,7.39-8.58,14.74-12.83,22.13c-1.15-1.31-2.23-2.67-3.33-4.01c1-1.67,2-3.34,3.01-5.01c-1.96-2.51-3.92-5.01-5.87-7.51
			c-1.83,0.6-3.66,1.19-5.48,1.79C555.59,158.19,554.54,156.85,553.49,155.51z M566.22,156.43c1.32,1.71,2.65,3.42,3.98,5.13
			c1.66-2.66,3.3-5.32,4.93-8C572.15,154.5,569.18,155.46,566.22,156.43z"/>
	</g>
	<g>
		<path fill="#271756" d="M86.84,160.48c-1.82-1.96,0.62-5.97,3.19-4.69c1.38,1.02,1.51,2.83,2.05,4.32
			c5.27,0.15,10.42,2.94,13.19,7.45c4.39,7.32-2.71,18.01-11.15,16.96c-5.84-0.9-11.76-5.33-12.42-11.53
			c-0.24-4.49,2.43-8.89,6.21-11.22c1.01-0.65,1.91-1.46,2.56-2.47C89.31,159.85,88.1,160.25,86.84,160.48z M90.32,165.38
			c-3.56,1.36-5.35,6.15-3.12,9.37c2.2,2.97,5.88,5.4,9.7,4.95c4.26-0.63,6.76-6.14,4.16-9.68
			C98.65,166.86,94.42,164.05,90.32,165.38z"/>
	</g>
	<path fill="#271756" d="M76.99,161.22c2.12-0.2,4.23-0.4,6.35-0.53c-1.85,3.33-5.94,3.56-9.14,4.81
		C75.13,164.07,76.06,162.65,76.99,161.22z"/>
	<path fill="#271756" d="M312.75,164.74c2.23-1.57,4.19-4.09,7.1-4.26c32.51-3.54,66,1.98,95.55,16.03
		c37.71,17.69,68.82,48.92,86.36,86.69c17.01,36.1,21.26,77.99,12,116.79c-4.91,20.85-13.69,40.73-25.59,58.52
		c-35.4-0.22-70.78-1.08-106.18-1.12c-11.68,0.16-24.11,0.16-34.55,6.13c-4.1,2.34-7.59,5.57-10.65,9.12
		c-3.58-6.09-8.6-11.48-15.05-14.54c-10.92-5.34-23.41-5.05-35.27-5.35c16.26-11.49,32.28-23.32,48.45-34.94
		c5.7-3.99,11.07-8.52,17.32-11.65c10.85-6.25,21.77-13.84,27.83-25.15c4.24-7.75,4.45-17.23,1.47-25.45
		c-4.12-11.77-12.13-21.64-20.31-30.84c-18.92-21.04-41.16-39.07-58.11-61.87c-8.75-12.02-16.28-26.57-14.22-41.9
		C290.89,185.97,301.46,173.97,312.75,164.74z"/>
	<path fill="#271756" d="M554.37,167.65c1.2-0.93,2.4-1.86,3.61-2.78c0.94,1.19,1.87,2.38,2.82,3.57c-1.21,0.94-2.42,1.89-3.61,2.83
		C556.24,170.06,555.3,168.86,554.37,167.65z"/>
	<path fill="#271756" d="M571.63,178.61c6.73-4.23,13.46-8.45,20.22-12.64c0.82,1.31,1.66,2.63,2.5,3.95
		c-2.78,5.57-5.56,11.14-8.34,16.71c4.51-2.79,9-5.6,13.49-8.42c0.79,1.26,1.57,2.53,2.38,3.8c-6.74,4.22-13.49,8.41-20.21,12.64
		c-0.87-1.36-1.72-2.71-2.58-4.07c2.68-5.47,5.4-10.92,8.06-16.41c-4.4,2.72-8.76,5.49-13.15,8.22
		C573.2,181.12,572.41,179.86,571.63,178.61z"/>
	<path fill="#271756" d="M70.29,183.67c-1.02-1.94,0.43-4.64,2.64-4.79c2.56,0.71,2.52,3.68,2.7,5.82
		c4.81,2.7,10.07,4.76,14.36,8.29c3.29,3.17,1.68,8.23-0.58,11.52c-1.7,3.08-5.48,5.18-8.95,3.84c-5.64-2.17-10.76-5.45-16.14-8.16
		c0.75-1.42,1.5-2.83,2.25-4.24c4.95,2.47,9.68,5.43,14.77,7.63c3.37,1.37,6.37-2.55,6.02-5.65c-0.53-1.77-2.26-2.65-3.71-3.53
		c-4.2-2.32-8.48-4.48-12.69-6.77c1-1.83,2.04-3.63,3.23-5.35C72.98,183,71.82,184.32,70.29,183.67z"/>
	<path fill="#271756" d="M606.39,199.14c1.19-0.61,2.39-1.22,3.59-1.82c2.88,5.62,5.73,11.25,8.6,16.88
		c-1.21,0.61-2.41,1.22-3.6,1.83c-1.07-2.1-2.13-4.19-3.2-6.29c-5.91,2.98-11.77,6.03-17.68,9c-0.73-1.44-1.44-2.87-2.15-4.3
		c5.88-2.99,11.77-5.98,17.65-8.99C608.52,203.34,607.45,201.24,606.39,199.14z"/>
	<g>
		<path fill="#271756" d="M57.01,215.97c2.46-4.01,9.1-3.07,11.09,0.94c0.8,1.5,0.46,3.27,0.54,4.91c3.82-2.32,8.32-2.75,12.6-3.6
			c-0.68,1.78-1.35,3.56-2.02,5.34c-3.37,0.87-6.85,1.37-10.14,2.53c-1.83,0.53-2.32,2.57-3.2,4.02c3.14,1.22,6.29,2.42,9.43,3.64
			c-0.59,1.49-1.18,2.99-1.77,4.48c-7.41-2.88-14.85-5.67-22.25-8.57C53.21,225.11,54.51,220.26,57.01,215.97z M59.74,219.61
			c-1.28,2.2-2.02,4.65-2.94,7.02c1.88,0.72,3.75,1.45,5.63,2.17c0.95-2.54,2.15-5.04,2.54-7.75
			C64.93,218.52,61.03,217.35,59.74,219.61z"/>
	</g>
	<path fill="#271756" d="M630.18,225.24c3.31,0.15,6.01,3.94,4.06,6.93c-2.25,1.89-6.53,0.69-7.92-1.68c2-0.12,4-0.01,6.02-0.14
		C633.86,228.32,630.1,227.38,630.18,225.24z"/>
	<path fill="#271756" d="M199.65,226.45c1.01-0.98,2.09,0.27,2.92,0.82c31.29,24.8,62.57,49.62,93.89,74.37
		c7.94,5.88,16.28,11.72,22.02,19.91c2.07,2.88,3.56,7.63,0.43,10.33c-4.15,3.31-9.78,3.74-14.9,3.83
		c-48.07-0.01-96.13,0.09-144.2,0.05C160.56,296.25,174.58,257.05,199.65,226.45z"/>
	<g>
		<path fill="#271756" d="M598.83,228.52c8.54,0.18,17.09,0.33,25.63,0.6c0.57,1.58,1.14,3.16,1.71,4.74
			c-6.37,5.74-12.77,11.43-19.15,17.16c-0.6-1.66-1.2-3.31-1.78-4.95c1.45-1.28,2.92-2.55,4.38-3.82c-1.1-2.97-2.19-5.95-3.26-8.93
			c-1.93-0.01-3.85-0.01-5.76,0C600.01,231.71,599.41,230.11,598.83,228.52z M610.65,233.33c0.73,2.03,1.47,4.07,2.22,6.11
			c2.39-2.03,4.78-4.06,7.16-6.1C616.9,233.33,613.77,233.32,610.65,233.33z"/>
	</g>
	<path fill="#271756" d="M48.06,237.04c1.29,0.36,2.59,0.72,3.88,1.09c-0.64,2.26-1.28,4.53-1.92,6.79
		c6.34,1.81,12.68,3.65,19.02,5.46c-0.43,1.54-0.86,3.09-1.3,4.63c-6.36-1.79-12.7-3.65-19.05-5.45c-0.66,2.26-1.31,4.53-1.97,6.8
		c-1.29-0.38-2.58-0.75-3.87-1.12C44.56,249.17,46.35,243.11,48.06,237.04z"/>
	<path fill="#271756" d="M608.24,255.72c7.68-2.07,15.37-4.13,23.05-6.19c0.41,1.55,0.83,3.1,1.25,4.65
		c-7.68,2.07-15.37,4.12-23.04,6.19C609.07,258.81,608.64,257.26,608.24,255.72z"/>
	<path fill="#271756" d="M159.83,340.86c37.01,30.37,73.75,61.07,110.66,91.57c-27.5-0.68-54.99-1.64-82.5-2.24
		c-1.28-0.17-3.13,0.18-3.75-1.3C168.63,402.32,160.22,371.65,159.83,340.86z"/>
	<path fill="#271756" d="M310.48,354.55c4.83-1.25,9.72-2.27,14.6-3.28c0.63,0.82,1.26,1.66,1.88,2.51
		c-3.8,1.24-7.45,2.9-11.29,3.99C313.38,358.37,312.12,355.68,310.48,354.55z"/>
	<path fill="#271756" d="M38.12,357.15c5.65-1.46,11.53-1.64,17.27-2.5c0.17,1.52,0.34,3.06,0.51,4.59
		c-5.27,0.76-10.63,1.03-15.84,2.15c-4.16,0.93-3.56,8.66,0.86,8.51c5.41-0.14,10.75-1.21,16.13-1.72c0.18,1.51,0.36,3.03,0.54,4.56
		c-5.84,0.59-11.64,1.81-17.52,1.79c-4.38-0.03-6.57-4.59-6.7-8.4C32.7,362.54,34.27,358.11,38.12,357.15z"/>
	<path fill="#271756" d="M619.81,370.25c-3.15-5.35-0.82-14.61,6.41-14.73c-0.07,1.54-0.14,3.08-0.2,4.63
		c-3.83,0.55-5.09,6.05-2.09,8.29c3.66-0.72,3.33-5.74,5.14-8.39c1.67-4.65,8.5-5.46,11.44-1.63c2.55,3.48,2.08,8.51,0.22,12.22
		c-1.37,2.69-4.5,3.41-7.18,4.02c-0.04-1.48-0.06-2.95-0.07-4.42c1.67-0.78,3.94-1.28,4.47-3.35c1.23-2.59-0.35-7.5-3.88-6.05
		c-2.24,3.11-2.47,7.3-5.06,10.18C626.55,373.72,621.81,373.26,619.81,370.25z"/>
	<path fill="#271756" d="M272.96,363.8c8.42-2.2,16.91-4.16,25.33-6.34c1.62,1.64,3.22,3.29,4.81,4.97
		c-7.33,2.91-14.71,5.71-22.12,8.4C278.36,368.43,275.66,366.11,272.96,363.8z"/>
	<path fill="#271756" d="M221.89,376.84c12.85-3.46,25.77-6.62,38.58-10.2c2.96,2.82,5.75,5.8,8.6,8.74
		c-11.33,4.22-22.54,8.9-34.05,12.57C230.31,384.68,226.36,380.43,221.89,376.84z"/>
	<path fill="#271756" d="M616.88,380.88c0.26-1.41,0.55-2.81,0.83-4.21c7.48,1.46,14.96,2.92,22.44,4.36
		c-0.3,1.5-0.59,3.02-0.88,4.53c-5.45,2.1-10.93,4.13-16.38,6.25c4.87,0.92,9.74,1.88,14.61,2.83c-0.2,1.05-0.61,3.14-0.81,4.19
		c-7.49-1.43-14.98-2.89-22.46-4.36c0.28-1.47,0.56-2.94,0.85-4.4c5.59-2.08,11.17-4.17,16.75-6.27
		C626.85,382.81,621.86,381.85,616.88,380.88z"/>
	<path fill="#271756" d="M35.48,382.74c7.51-1.32,15.02-2.65,22.54-3.96c0.25,1.47,0.51,2.94,0.76,4.42
		c-4.46,3.94-8.92,7.9-13.39,11.83c5.01-0.84,10.01-1.74,15.01-2.62c0.25,1.4,0.51,2.81,0.76,4.21c-7.5,1.35-15.02,2.65-22.53,3.99
		c-0.27-1.53-0.53-3.04-0.8-4.55c4.34-3.9,8.72-7.77,13.06-11.68c-4.89,0.85-9.78,1.74-14.67,2.57
		C35.97,385.54,35.72,384.14,35.48,382.74z"/>
	<g>
		<path fill="#271756" d="M616.37,402.4c4.77-1.86,10.56-0.45,14.33,2.91c5.93,5.55,2.45,17.28-5.61,18.61
			c-5.62,0.8-12.46-1.57-14.63-7.23C608.71,411.42,611.12,404.69,616.37,402.4z M618.38,406.49c-4.48,0.97-6.05,7.62-2.41,10.45
			c3.82,3.19,11.72,3.84,13.38-1.97C631.19,408.75,623.42,405.33,618.38,406.49z"/>
	</g>
	<path fill="#271756" d="M40.46,407.48c7.44-1.75,14.88-3.46,22.33-5.16c0.33,1.5,0.65,3,0.98,4.51
		c-7.43,1.66-14.83,3.44-22.26,5.12C41.16,410.46,40.81,408.96,40.46,407.48z"/>
	<path fill="#271756" d="M44.53,423.92c6.32-5.06,12.65-10.11,18.96-15.19c0.54,1.57,1.09,3.16,1.63,4.74
		c-4.7,3.66-9.41,7.32-14.1,10.99c5.95-0.06,11.9-0.18,17.85-0.19c0.51,1.52,1.03,3.06,1.55,4.59c-8.09-0.09-16.19-0.19-24.28-0.28
		C45.6,427.02,45.06,425.47,44.53,423.92z"/>
	<path fill="#271756" d="M605.13,428.42c0.49-1.46,0.99-2.92,1.51-4.37c7.2,2.51,14.42,4.96,21.63,7.47
		c-0.51,1.44-1.02,2.89-1.51,4.34C619.54,433.39,612.33,430.9,605.13,428.42z"/>
	<path fill="#271756" d="M604.29,432.09c1.18,0.5,2.37,1,3.57,1.51c-0.89,2.07-1.76,4.15-2.64,6.23c5.82,2.48,11.65,4.95,17.48,7.41
		c-0.6,1.42-1.2,2.84-1.79,4.27c-5.84-2.47-11.67-4.97-17.51-7.41c-0.89,2.07-1.76,4.15-2.64,6.23c-1.2-0.52-2.38-1.03-3.56-1.54
		C599.57,443.23,601.92,437.65,604.29,432.09z"/>
	<path fill="#271756" d="M50.06,440.73c7.07-2.86,14.13-5.72,21.2-8.57c2.12,5.24,4.25,10.48,6.35,15.72
		c-1.2,0.48-2.39,0.96-3.58,1.45c-1.55-3.81-3.09-7.62-4.64-11.43c-1.56,0.62-3.13,1.25-4.69,1.89c1.43,3.55,2.88,7.1,4.29,10.67
		c-1.19,0.46-2.39,0.93-3.58,1.4c-1.42-3.55-2.85-7.09-4.3-10.63c-1.91,0.77-3.83,1.56-5.75,2.34c1.59,3.95,3.2,7.89,4.76,11.85
		c-0.88,0.36-2.65,1.08-3.53,1.44C54.39,451.49,52.22,446.11,50.06,440.73z"/>
	<g>
		<path fill="#271756" d="M58.83,462.72c6.79-3.48,13.58-6.94,20.39-10.38c2.01,4.22,4.53,8.21,6.03,12.66
			c1.42,4.2-3.08,8.27-7.15,7.6c-1.85-0.19-3.12-1.7-4.43-2.85c-0.81,4.2-3.39,7.68-5.52,11.29c-0.83-1.65-1.66-3.29-2.5-4.93
			c1.91-4.33,6.82-8.72,3.94-13.68c-2.9,1.44-5.78,2.93-8.67,4.39C60.22,465.45,59.53,464.08,58.83,462.72z M72.68,460.83
			c1.2,2.25,2.18,4.66,3.8,6.67c1.68,1.77,5.12-0.14,4.55-2.5c-0.75-2.4-2.06-4.57-3.17-6.8C76.13,459.07,74.41,459.95,72.68,460.83
			z"/>
	</g>
	<g>
		<path fill="#271756" d="M590.68,463.68c0.68-1.49,1.36-2.97,2.05-4.45c8.2,0.44,16.4,0.93,24.6,1.38
			c-0.72,1.51-1.42,3.02-2.13,4.55c-1.84-0.14-3.68-0.28-5.52-0.41c-1.31,2.76-2.6,5.53-3.87,8.31c1.3,1.3,2.6,2.59,3.9,3.9
			c-0.7,1.47-1.38,2.94-2.06,4.43C601.96,475.51,596.36,469.55,590.68,463.68z M596.53,463.74c2.11,2.14,4.23,4.26,6.37,6.38
			c0.88-1.88,1.76-3.76,2.65-5.63C602.54,464.24,599.53,463.99,596.53,463.74z"/>
	</g>
	<path fill="#271756" d="M216.62,469.54c31.62,0.91,63.23,2.08,94.86,3.02c2.29,8.65,9.52,15.95,18.5,17.33
		c11.02,2.21,22.46-5.18,25.8-15.76c32.4,0.91,64.81,1.93,97.2,3.15c-28.45,23.43-64.22,37.95-101.04,40.38
		c-37.31,2.81-75.4-6.64-107.11-26.49C234.73,484.93,225.34,477.58,216.62,469.54z"/>
	<path fill="#271756" d="M82.25,480.05c0.9-3.42,5.27-5.32,8.38-3.6c5.18,2.92,8.31,11.38,2.58,15.4c-0.82-1.28-1.64-2.55-2.44-3.84
		c3.42-2.56-0.61-10.24-4.1-6.96c-0.19,4.07,2.42,7.91,1.59,12.01c-1.06,4.52-7.32,6.46-10.82,3.45c-2.65-2.41-4.74-5.81-4.81-9.47
		c-0.01-2.71,1.97-4.7,3.66-6.56c0.87,1.18,1.75,2.39,2.61,3.59c-1.11,1.66-2.73,3.58-1.62,5.69c0.65,2.47,3.94,5.11,6.16,2.77
		C84.44,488.36,81,484.3,82.25,480.05z"/>
	<path fill="#271756" d="M579.5,488.93c-2.1-6.81,4.48-14.9,11.74-12.84c-0.45,1.45-0.88,2.9-1.32,4.35c-1.95,0.1-4.34,0-5.5,1.9
		c-2.04,2.43-1.29,6.21,1.25,7.98c2.94,2.46,8.04,5.15,11.22,1.61c2.32-2.36,0.95-5.61-0.81-7.81c1.16-1.02,2.32-2.03,3.49-3.04
		c1.22,1.82,2.7,3.64,2.89,5.92c0.5,6.13-5.34,12.1-11.58,11.03C585.97,497.13,581.09,493.82,579.5,488.93z"/>
	<path fill="#271756" d="M82.45,505.55c6.16-4.5,12.33-8.98,18.52-13.45c0.89,1.24,1.79,2.49,2.69,3.74
		c-6.17,4.46-12.32,8.96-18.5,13.43C84.26,508.02,83.35,506.78,82.45,505.55z"/>
	<path fill="#271756" d="M570.31,497.8c0.85-1.28,1.7-2.55,2.56-3.82c6.33,4.23,12.64,8.51,18.97,12.78
		c-0.86,1.27-1.71,2.55-2.55,3.84C582.95,506.35,576.64,502.07,570.31,497.8z"/>
	<path fill="#271756" d="M102.95,501.9c1-0.81,2.01-1.62,3.02-2.42c3.74,4.78,7.49,9.55,11.21,14.35c-1.02,0.78-2.04,1.57-3.06,2.36
		c-1.39-1.77-2.78-3.55-4.17-5.31c-5,3.88-9.98,7.79-14.97,11.69c-0.95-1.22-1.9-2.43-2.84-3.64c4.99-3.9,9.98-7.8,14.95-11.7
		C105.72,505.44,104.33,503.67,102.95,501.9z"/>
	<path fill="#271756" d="M565.03,505.53c0.89-1.11,1.79-2.23,2.69-3.34c5.93,4.79,11.85,9.59,17.77,14.39
		c-0.98,1.2-1.93,2.4-2.89,3.6c-5.8-0.73-11.59-1.49-17.38-2.19c3.85,3.12,7.71,6.23,11.56,9.36c-0.91,1.11-1.81,2.22-2.7,3.34
		c-5.92-4.81-11.85-9.6-17.77-14.39c0.92-1.18,1.85-2.34,2.78-3.5c5.92,0.76,11.84,1.57,17.77,2.32
		C572.92,511.92,568.98,508.72,565.03,505.53z"/>
	<path fill="#271756" d="M113.29,530.22c1.91-4.86,3.02-9.99,4.65-14.94c1.19,1.34,2.37,2.69,3.56,4.04
		c-1.09,3.34-2.19,6.68-3.29,10.02c3.43-0.65,6.85-1.3,10.27-1.96c1.16,1.33,2.32,2.66,3.49,4c-5.1,0.93-10.29,1.35-15.34,2.49
		c-2.72,1.73-4.93,4.15-7.43,6.19c-1.01-1.17-2.01-2.32-3.02-3.48C108.53,534.44,111.14,532.57,113.29,530.22z"/>
	<path fill="#271756" d="M549.5,524.56c1.02-1.15,2.05-2.28,3.09-3.42c4.31,4.09,9.13,7.69,12.97,12.25
		c2.61,3.23,0.75,7.66-1.9,10.2c-2.28,2.84-6.52,4.8-9.88,2.6c-4.9-3.29-8.92-7.69-13.4-11.49c1.03-1.15,2.07-2.29,3.11-3.42
		c3.98,3.43,7.67,7.22,11.85,10.44c2.51,2.05,5.68-0.33,6.78-2.76c0.82-2.03-0.89-3.66-2.17-4.94
		C556.52,530.8,552.94,527.75,549.5,524.56z"/>
	<path fill="#271756" d="M531.82,542.45c1.68-1.51,3.34-3.04,5-4.58c5.21,5.57,10.41,11.15,15.6,16.73
		c-1.05,0.97-2.09,1.95-3.13,2.92c-4.07-4.37-8.15-8.73-12.21-13.1c2.91,5.43,5.94,10.79,8.88,16.21c-1.08,1-2.16,2-3.23,3.01
		c-5.14-3.27-10.22-6.65-15.38-9.88c3.96,4.38,8.05,8.64,12.05,12.99c-1.05,0.96-2.1,1.93-3.14,2.9
		c-5.21-5.56-10.39-11.15-15.59-16.71c1.68-1.58,3.36-3.16,5.06-4.72c4.54,2.86,9.09,5.71,13.64,8.57
		C536.89,551.99,534.14,547.32,531.82,542.45z"/>
	<g>
		<path fill="#271756" d="M137.44,542.55c7.56-1.99,15.65,6.36,13.1,13.87c-1.75,4.85-6.11,9.3-11.49,9.63
			c-6.85,0.06-13.4-7.21-11.14-14.07C129.43,547.67,132.93,543.75,137.44,542.55z M137.39,547.51c-4.17,2.29-7.72,8.66-3.4,12.49
			c4.72,4.3,11.2-1.06,12.46-6.02C147.76,549.16,141.55,544.64,137.39,547.51z"/>
	</g>
	<path fill="#271756" d="M158.69,555.93c4.15,3.18,8.26,6.41,12.37,9.65c-0.8,1-1.6,2.02-2.4,3.03c-2.89-2.27-5.79-4.55-8.7-6.79
		c-1.12,1.4-2.23,2.81-3.33,4.23c2.5,1.97,5.01,3.93,7.52,5.9c-0.79,1.01-1.59,2.02-2.38,3.04c-2.51-1.95-5.02-3.91-7.53-5.87
		c-2,2.56-4,5.12-6,7.67c-1.2-0.96-2.41-1.92-3.61-2.87C149.31,567.92,154,561.93,158.69,555.93z"/>
	<path fill="#271756" d="M511.94,560.01c1.83-1.39,3.67-2.77,5.52-4.13c4.59,6.07,9.18,12.15,13.75,18.24
		c-1.14,0.86-2.28,1.72-3.4,2.59c-3.58-4.75-7.16-9.51-10.76-14.24c2.34,5.69,4.78,11.35,7.14,17.04c-1.27,0.67-2.35,2.15-3.78,2.31
		c-4.86-3.55-9.36-7.59-14.14-11.24c3.56,4.77,7.17,9.5,10.73,14.27c-1.15,0.85-2.3,1.7-3.45,2.56
		c-4.55-6.11-9.18-12.17-13.73-18.28c1.85-1.4,3.71-2.79,5.61-4.12c4.14,3.37,8.39,6.61,12.59,9.93
		C516.02,569.95,513.94,564.99,511.94,560.01z"/>
	<path fill="#271756" d="M180.07,571.98c5.15,3.21,10.29,6.42,15.43,9.65c-0.69,1.08-1.38,2.17-2.06,3.26
		c-1.91-1.19-3.83-2.39-5.74-3.57c-3.36,5.36-6.71,10.73-10.07,16.1c-1.31-0.82-2.61-1.63-3.91-2.44
		c3.34-5.38,6.71-10.74,10.07-16.11c-1.92-1.21-3.84-2.4-5.76-3.59C178.71,574.17,179.39,573.07,180.07,571.98z"/>
	<g>
		<path fill="#271756" d="M489.4,575.65c7.43-3.11,14.73,4.15,15.49,11.24c1.07,8.42-10.07,15.17-16.98,10.16
			c-4.2-3.14-7.34-8.71-5.86-14.02C482.94,579.45,486.14,577,489.4,575.65z M490.38,579.56c-2.93,0.98-4.87,4.25-3.94,7.28
			c0.97,3.23,3.14,6.66,6.62,7.51c4.09,0.97,8.35-3.23,7.12-7.35C499.13,582.82,495.24,577.75,490.38,579.56z"/>
	</g>
	<g>
		<path fill="#271756" d="M198.15,583.53c4.14,2.27,8.63,3.99,12.46,6.79c3.59,2.7,2.06,8.83-1.82,10.44
			c-1.54,0.72-3.26,0.21-4.86,0.12c1.78,3.87,1.74,8.18,2.13,12.34c-1.64-0.82-3.27-1.65-4.9-2.46c-0.49-3.49-0.6-7.05-1.52-10.45
			c-0.47-1.58-2.29-1.97-3.52-2.73c-1.38,2.82-2.81,5.62-4.24,8.42c-1.38-0.7-2.75-1.4-4.12-2.09
			C191.22,597.11,194.68,590.32,198.15,583.53z M200.48,589.08c-0.87,1.72-1.74,3.44-2.61,5.17c2.32,1.17,4.59,2.49,7.11,3.19
			c2.25,0.21,3.87-3.05,2.19-4.64C205.14,591.23,202.74,590.25,200.48,589.08z"/>
	</g>
	<path fill="#271756" d="M462.28,592.31c3.23-5.27,11.37-6.94,15.72-2.06c-1.14,0.98-2.28,1.96-3.41,2.95
		c-1.69-0.9-3.54-2.31-5.55-1.45c-3.16,0.86-4.64,4.6-3.39,7.53c1.15,3.75,4.23,8.94,8.93,7.19c3.01-0.84,3.34-4.23,3.15-6.84
		c1.53-0.22,3.06-0.43,4.6-0.63c-0.04,2.18,0.23,4.51-0.84,6.52c-2.9,5.49-11.19,7.25-15.79,2.85
		C461.56,604.43,459,597.52,462.28,592.31z"/>
	<g>
		<path fill="#271756" d="M208.17,614.67c5.49-6.07,11.01-12.11,16.51-18.16c1.52,0.57,3.04,1.16,4.57,1.75
			c0.09,8.21,0.24,16.42,0.32,24.64c-1.56-0.62-3.12-1.2-4.68-1.8c-0.01-1.88-0.01-3.74-0.02-5.6c-2.85-1.09-5.7-2.17-8.55-3.23
			c-1.21,1.4-2.42,2.8-3.64,4.18C211.18,615.85,209.67,615.25,208.17,614.67z M219.08,609.16c1.93,0.74,3.87,1.49,5.8,2.23
			c0.03-3.02,0.07-6.03,0.08-9.04C223.01,604.62,221.04,606.89,219.08,609.16z"/>
	</g>
	<g>
		<path fill="#271756" d="M428.24,605.6c4.22-1.47,8.27-3.71,12.76-4.2c5.01,0.05,8.26,4.76,9.62,9.1c1.43,3.86,1.06,8.98-2.59,11.5
			c-3.55,2.29-7.73,3.33-11.6,4.93C433.7,619.81,430.98,612.7,428.24,605.6z M433.94,607.5c1.8,4.75,3.61,9.49,5.46,14.22
			c2.71-1.33,7.43-1.89,7.47-5.77c-0.25-3.3-1.4-6.7-3.67-9.16C440.49,604.22,436.85,606.65,433.94,607.5z"/>
	</g>
	<path fill="#271756" d="M241.3,603.1c1.41,0.47,2.82,0.94,4.24,1.43c1.37,5.74,2.37,11.57,4,17.26c1.6-4.75,3.23-9.48,4.87-14.2
		c1.35,0.46,2.69,0.93,4.05,1.4c-2.49,7.2-4.96,14.41-7.45,21.62c-1.46-0.51-2.91-1-4.36-1.49c-1.31-5.7-2.6-11.39-3.87-17.09
		c-1.66,4.67-3.24,9.38-4.87,14.07c-1.35-0.47-2.71-0.94-4.05-1.4C236.34,617.5,238.83,610.3,241.3,603.1z"/>
	<path fill="#271756" d="M419.62,608.19c1.38-0.37,2.76-0.74,4.15-1.1c1.98,7.36,3.95,14.73,5.92,22.09
		c-1.49,0.38-2.97,0.79-4.45,1.19c-4.28-4-8.53-8.02-12.8-12.02c1.3,4.79,2.56,9.6,3.88,14.4c-1.04,0.28-3.1,0.84-4.14,1.12
		c-2.01-7.35-3.95-14.72-5.92-22.08c1.39-0.41,2.8-0.81,4.2-1.22c4.43,4.06,8.73,8.25,13.11,12.36
		C422.25,618.02,420.95,613.1,419.62,608.19z"/>
	<path fill="#271756" d="M262.18,620.79c-2.03-2.99-0.47-7.55,2.91-8.75c5.66-1.84,14.06,1.61,13.16,8.61c-1.5-0.28-3-0.55-4.5-0.82
		c0-3.9-6.03-6.24-8.06-2.78c1.07,3.43,5.66,3.86,8.15,6.14c4.59,2.82,3.16,10.54-1.91,11.9c-3.65,0.86-7.79-0.02-10.79-2.27
		c-2.38-1.74-2.63-4.86-2.87-7.54c1.47,0.15,2.94,0.32,4.42,0.51c0.44,2.06,0.97,4.67,3.42,5.22c2.3,1.11,6.39,0.19,5.85-3.01
		C269.38,624.77,264.49,624.35,262.18,620.79z"/>
	<g>
		<path fill="#271756" d="M390.37,615.31c1.6-0.27,3.2-0.54,4.81-0.79c4.22,7.04,8.4,14.1,12.63,21.13
			c-1.65,0.27-3.3,0.55-4.94,0.84c-0.94-1.62-1.88-3.23-2.81-4.84c-3.02,0.48-6.02,0.96-9.03,1.45c-0.35,1.8-0.7,3.6-1.05,5.41
			c-1.61,0.25-3.22,0.51-4.83,0.77C386.87,631.29,388.63,623.3,390.37,615.31z M393.57,620.22c-0.6,2.93-1.17,5.87-1.73,8.82
			c2.05-0.32,4.1-0.64,6.16-0.95C396.53,625.45,395.05,622.83,393.57,620.22z"/>
	</g>
	<g>
		<path fill="#271756" d="M280.99,638.27c0.9-7.57,1.84-15.13,2.78-22.69c4.28,0.63,8.68,0.75,12.86,1.99
			c5.18,2.09,4.81,10.57-0.14,12.73c-3.17,1.23-6.62,0.22-9.88,0.02c-0.35,2.84-0.71,5.68-1.06,8.53
			C284.02,638.65,282.51,638.46,280.99,638.27z M287.87,619.95c-0.27,2.17-0.53,4.35-0.78,6.54c1.94,0.15,3.89,0.43,5.86,0.34
			c2.45-0.14,3.63-3.75,1.67-5.27C292.69,620.17,290.1,620.42,287.87,619.95z"/>
	</g>
	<g>
		<path fill="#271756" d="M310.46,619.66c3.95-1.51,8.8-1.01,12.12,1.71c4.79,4.05,4.67,11.78,1.54,16.8
			c-4.43,6.68-16.33,5.41-19.18-2.11C302.87,630.31,304.38,622.32,310.46,619.66z M312.37,623.48c-5.46,3.31-4.88,14.87,2.61,15.05
			c5.38,0.21,7.3-6.17,6.41-10.51C321.04,623.85,315.92,621.44,312.37,623.48z"/>
	</g>
	<path fill="#271756" d="M353.95,619.6c6.06-0.31,12.11-0.65,18.16-0.96c0.05,0.97,0.15,2.9,0.2,3.86
		c-2.27,0.11-4.52,0.24-6.77,0.37c0.31,6.32,0.69,12.65,0.99,18.98c-1.54,0.05-3.08,0.1-4.62,0.16c-0.33-6.29-0.64-12.59-0.97-18.88
		c-2.26,0.1-4.52,0.21-6.78,0.32C354.11,622.49,354.01,620.56,353.95,619.6z"/>
	<g>
		<path fill="#271756" d="M331.44,620.24c4.71,0.11,9.47-0.32,14.15,0.38c4.41,0.77,5.92,6.82,3.22,10.07
			c-1.06,1.37-2.86,1.74-4.36,2.42c3.38,2.59,5.29,6.47,7.52,9.99c-1.8,0.01-3.59,0.04-5.39,0.07c-3.13-3.6-4.68-10.09-10.48-9.81
			c-0.05,3.25-0.04,6.5-0.04,9.76c-1.54,0-3.07,0-4.6,0.02C331.41,635.51,331.44,627.87,331.44,620.24z M336.06,624.1
			c0,1.93,0,3.88,0.01,5.82c2.52-0.06,5.09,0.15,7.58-0.37c2.34-0.6,2.31-4.63-0.04-5.16C341.12,623.94,338.57,624.14,336.06,624.1z
			"/>
	</g>
</g>
</svg>
